<svg width="288" height="93" viewBox="0 0 288 93" fill="none" xmlns="http://www.w3.org/2000/svg">
<path d="M51.375 60.5L37.8438 60.4375C35.4062 60.4062 33.375 58.4688 33.2812 56.0312C33.1562 52.5625 33.0625 48.25 33.0625 43.75C33.0625 35.2812 33.4062 26.0312 34.4688 19.7188C34.8438 17.4688 36.6875 15.875 39.0312 15.8438C41.5938 15.8438 43.625 17.9375 43.625 20.4062C43.625 20.6875 43.5938 20.9688 43.5312 21.25C42.5938 26.5625 42.2812 36.0938 42.2812 44.6562L42.3438 51.2812L51.4062 51.3438C53.9375 51.3438 55.9688 53.4062 55.9688 55.9375C55.9688 58.4688 53.875 60.5 51.375 60.5ZM35.5 27.7188C35.75 27.7188 35.9375 27.5 35.9375 27.2812C36.5 19.6875 36.7812 18.7188 38.5625 17.6562C38.7188 17.5625 38.8125 17.4062 38.8125 17.25C38.8125 17.0312 38.625 16.8125 38.3438 16.7812C38.25 16.7812 38.1875 16.8125 38.0938 16.875C36.0625 18.125 35.5 19.6875 35.0312 27.2812C35.0312 27.5 35.2188 27.6875 35.4375 27.7188H35.5ZM35.2188 31.9062C35.4375 31.9062 35.625 31.7188 35.6562 31.5C35.7188 30.6562 35.7812 30.2812 35.8125 29.2812C35.8125 29.0312 35.625 28.8438 35.3438 28.8438C35.0938 28.8438 34.9062 29.0312 34.9062 29.2812L34.7188 31.4375C34.7188 31.6875 34.9062 31.9062 35.1562 31.9062H35.2188ZM47.8125 52.8438L51.25 52.75C51.4688 52.75 51.6875 52.5938 51.6875 52.3438V52.2812C51.6875 52.0312 51.4688 51.8438 51.2188 51.8438L47.8125 51.9062C47.5625 51.9062 47.3438 52.125 47.3438 52.375C47.3438 52.625 47.5625 52.8438 47.8125 52.8438ZM72.1562 60.5H71.6562C66.5 60.25 62.5312 56.3125 60.875 52.0312C59.4688 48.375 59 44.2188 59 39.8125L59.0312 37.6562C59.1562 32.5312 59.5625 27.7188 61.375 23.5C62.3125 21.4062 63.6562 19.375 65.7188 17.9375C67.5625 16.625 69.9375 15.9375 72.3125 15.9062C72.5625 15.9062 72.8125 15.9062 73.0625 15.9375C78.3438 16.1875 82.5 20.1562 84.0938 24.4688C85.4062 28.0625 85.7188 32.0312 85.7188 36.2188L85.6875 38.7812C85.5312 44 84.9375 48.8438 83.0625 53C81.2188 57 77.0625 60.5 72.1562 60.5ZM62.1875 26.6875C62.4062 26.6875 62.625 26.5312 62.6562 26.3125C63.5625 21.9688 66.5 18.5625 70.0312 18.25C70.2812 18.2188 70.4688 18.0312 70.4688 17.7812C70.4688 17.5312 70.25 17.3438 70 17.3438H69.9688C65.9062 17.6875 62.7188 21.5 61.7812 26.125V26.2188C61.7812 26.4375 61.9062 26.625 62.125 26.6875H62.1875ZM72.125 51.3438C73.125 51.3438 74 50.75 74.7188 49.1875C75.7188 47.0625 76.4062 43.0938 76.5312 38.5312L76.5625 36.7812C76.5625 32.875 76.1875 29.5625 75.4688 27.625C74.6875 25.4062 73.8438 24.9062 72.5938 24.9062C71.2812 24.9062 70.5 25.625 69.7812 27.1562C68.875 29.2188 68.3125 33.2188 68.1875 37.875L68.1562 39.3125C68.1562 43.2812 68.625 46.6875 69.4062 48.7188C70.3125 51 71.0625 51.3438 72.125 51.3438ZM61.4062 30.7812C61.625 30.7812 61.8125 30.5938 61.8438 30.375C61.9375 29.7188 62.0625 28.9688 62.2188 28.25V28.125C62.2188 27.9062 62.0312 27.6875 61.75 27.6875C61.5312 27.6875 61.375 27.875 61.3125 28.0625C61.1562 28.7812 61.0312 29.5625 60.9375 30.25V30.3125C60.9375 30.5312 61.0938 30.75 61.3438 30.7812H61.4062ZM75.3125 51.5312C75.4375 51.5312 75.5625 51.4688 75.6562 51.375C77.1875 49.5625 77.8438 46.5625 78.0312 43.6875V43.625C78.0312 43.375 77.8438 43.1875 77.625 43.1875H77.5625C77.3125 43.1875 77.125 43.375 77.125 43.625C76.9375 46.4062 76.2188 49.2812 74.9688 50.7812C74.875 50.8438 74.8438 50.9688 74.8438 51.0938C74.8438 51.2188 74.9062 51.3438 75 51.4375C75.0938 51.5 75.2188 51.5312 75.3125 51.5312ZM103.281 60.5C101.375 60.5 99.5938 59.25 98.9688 57.3125C94.25 47.5 89.9062 30.3438 89.9062 20.2812V20.2188C89.9062 17.7188 91.9062 15.6562 94.4062 15.625H94.4688C97 15.625 99.0625 17.6875 99.0625 20.2188V20.2812C99.0625 24.9688 101.156 35.0625 103.656 43.4375C106.812 35.2188 109.719 25.6875 109.719 20.2812V20.2188C109.719 17.7188 111.719 15.6562 114.219 15.625H114.281C116.812 15.625 118.875 17.6875 118.875 20.2188V20.2812C118.875 32.1875 112.094 48.1562 107.688 57.375C107.281 58.6875 106.281 59.7188 104.969 60.2188C104.938 60.2188 104.906 60.2188 104.875 60.25C104.781 60.2812 104.688 60.3125 104.594 60.3125C104.156 60.4375 103.719 60.5 103.281 60.5ZM92.4062 28.6562C92.625 28.625 92.8125 28.4062 92.8125 28.1875V28.125C92.375 24.875 92.125 22.7812 92.125 21.4062L92.1562 20.7812C92.2812 19.4375 92.625 18.9062 93.4375 18.1562C93.5312 18.0625 93.5938 17.9375 93.5938 17.8438C93.5938 17.5938 93.4062 17.375 93.125 17.3438C93 17.3438 92.9062 17.4062 92.8125 17.4688C91.9062 18.3125 91.375 19.1875 91.25 20.7188L91.2188 21.4062C91.2188 22.9062 91.4688 25 91.875 28.25C91.9062 28.4688 92.125 28.6562 92.3438 28.6562H92.4062ZM109.781 30.75C109.969 30.75 110.156 30.625 110.219 30.4688C110.562 29.6875 110.969 28.0625 111.312 26.1562C111.656 24.2812 111.938 22.1875 111.938 20.6562C111.938 20.375 111.75 20.1875 111.469 20.1875C111.219 20.1875 111.031 20.4062 111.031 20.6562C111.031 22.0938 110.75 24.1562 110.406 26C110.062 27.8438 109.625 29.5312 109.375 30.0938L109.344 30.2812C109.344 30.4375 109.438 30.625 109.625 30.7188L109.781 30.75ZM93.25 32.8125C93.4688 32.75 93.625 32.5938 93.625 32.375V32.2812C93.4688 31.4688 93.375 31.0625 93.2188 30.1562C93.1875 29.9375 92.9688 29.7812 92.75 29.7812C92.5 29.7812 92.3125 29.9688 92.3125 30.25V30.3438L92.7188 32.4375C92.7812 32.6562 92.9375 32.8125 93.1562 32.8125H93.25ZM133.438 60.5312C132.094 60.5312 130.938 60.5 129.688 60.3125C129.062 60.1875 128.406 60.0938 127.438 59.5938C126.531 59.125 124.906 57.5938 124.688 55.5938L124.719 55.6562C124.281 51.9062 124.094 45.9375 124.094 39.875C124.094 32.4375 124.375 24.8438 124.844 20.875V20.9688C124.969 19.75 125.656 18.3438 126.5 17.5625C127.438 16.7188 128.281 16.4375 128.938 16.25C130.281 15.875 131.281 15.875 132.469 15.875C132.781 15.8438 133.062 15.8438 133.406 15.8438C135.656 15.8438 138.438 15.9688 142.062 15.9688H142.125C144.656 15.9688 146.688 18 146.688 20.5312C146.688 23.0625 144.656 25.125 142.125 25.125H142.062C138.25 25.125 135.656 25.0312 133.75 25.0312C133.625 27.5625 133.5 31.0625 133.438 34.8438L140.844 34.7188C143.344 34.7188 145.375 36.7188 145.438 39.2188V39.2812C145.438 41.7812 143.375 43.875 140.844 43.875L133.406 44C133.406 46.7188 133.469 49.2812 133.562 51.375C135.844 51.375 139.062 51.2188 142.188 51.2188H142.25C144.781 51.2188 146.844 53.2812 146.844 55.8125C146.844 58.3125 144.781 60.375 142.25 60.375H142.188C139.312 60.375 136.125 60.5312 133.438 60.5312ZM126.875 26.75C127.125 26.75 127.344 26.5625 127.344 26.3125C127.5 21.6875 127.281 18.4062 131.812 17.7188C132.062 17.6875 132.219 17.4688 132.219 17.2188C132.188 17 132 16.8125 131.75 16.8125H131.656C126.562 17.5625 126.594 21.3438 126.438 26.2812C126.438 26.5312 126.625 26.75 126.875 26.75ZM126.719 30.8438C126.938 30.8438 127.125 30.6562 127.125 30.4062L127.281 28.2188C127.281 28 127.062 27.7812 126.844 27.7812H126.781C126.562 27.7812 126.375 27.9688 126.375 28.2188C126.281 29.125 126.281 29.5625 126.219 30.3438C126.219 30.625 126.406 30.8438 126.656 30.8438H126.719ZM137.406 36.25L140.844 36.1875C141.062 36.1875 141.281 36 141.281 35.7812V35.7188C141.281 35.5 141.094 35.2812 140.875 35.2812L137.406 35.3438C137.156 35.3438 136.938 35.5312 136.938 35.8125C136.938 36.0625 137.156 36.25 137.406 36.25ZM145.531 55.4375L145.656 55.4062C145.875 55.3438 146 55.1562 146 54.9688V54.8438C145.75 53.9688 145.094 53.25 144.344 52.7188C143.562 52.2188 142.688 51.9375 141.844 51.9375C141.594 51.9375 141.375 52.1562 141.375 52.4062C141.406 52.6875 141.594 52.875 141.875 52.875H141.969C142.531 52.875 143.25 53.125 143.844 53.5C144.469 53.9062 144.938 54.5 145.094 55.0938C145.156 55.3125 145.344 55.4375 145.531 55.4375ZM169.594 60.5H169.438C166.938 60.5 164.875 58.5312 164.781 56.0312C164.594 51.875 164.5 44.7188 164.5 37.7188C164.5 30.4375 164.625 23.3438 164.875 19.9062C165.062 17.5 167 15.6562 169.469 15.625C172 15.625 174.031 17.6562 174.031 20.1562C173.906 22.6875 173.781 26.9688 173.719 34.5938L180.781 34.5C180.781 27 180.594 22.6562 180.5 20.1875C180.5 17.7188 182.531 15.625 185.062 15.625C187.5 15.625 189.5 17.4375 189.656 19.9062C189.906 22.875 190 28.5312 190 34.6562C190 42.5625 189.844 51.3125 189.5 56.125C189.406 58.5938 187.344 60.4688 184.938 60.4688C182.281 60.4062 180.344 58.4375 180.344 55.875V55.5312C180.531 52.9062 180.656 48.5 180.719 43.6562L173.719 43.75C173.781 49.3438 173.875 53.0625 173.969 55.9062C173.969 58.3438 172.031 60.375 169.594 60.5ZM165.906 27.7188C166.156 27.7188 166.375 27.5 166.375 27.25C166.375 19.4375 166.562 18.6875 168.281 17.4375C168.438 17.3438 168.5 17.2188 168.5 17.0625C168.5 16.8438 168.312 16.625 168.031 16.5938C167.938 16.5938 167.844 16.625 167.75 16.6875C165.688 18.1875 165.438 19.5 165.438 27.25C165.438 27.5 165.656 27.7188 165.906 27.7188ZM182.438 28.875C182.688 28.875 182.875 28.6562 182.875 28.4062L182.625 20.125C182.625 19.875 182.406 19.6562 182.156 19.6562C181.938 19.6875 181.719 19.8438 181.719 20.0625C181.781 21.0625 181.938 27.5625 181.969 28.4375C181.969 28.6875 182.188 28.875 182.438 28.875ZM165.938 31.9375C166.156 31.9375 166.375 31.75 166.375 31.5312L166.406 29.3125C166.406 29.0625 166.188 28.8438 165.938 28.8438C165.688 28.8438 165.469 29.0625 165.469 29.3125V31.4688C165.469 31.7188 165.688 31.9375 165.938 31.9375ZM174.219 35.75L177.625 35.6875C177.906 35.6875 178.094 35.4688 178.094 35.2188C178.094 34.9375 177.875 34.75 177.625 34.75L174.188 34.8438C173.938 34.8438 173.719 35.0312 173.719 35.2812C173.75 35.5625 173.969 35.75 174.219 35.75ZM181.312 54.625C181.562 54.625 181.75 54.4062 181.75 54.1875L181.844 51.9688C181.844 51.75 181.656 51.5625 181.406 51.5625C181.156 51.5625 180.938 51.75 180.938 52C180.875 52.9375 180.906 53.375 180.844 54.2188C180.844 54.4375 181.031 54.625 181.25 54.625H181.312ZM208.344 60.5H207.844C202.688 60.25 198.719 56.3125 197.062 52.0312C195.656 48.375 195.188 44.2188 195.188 39.8125L195.219 37.6562C195.344 32.5312 195.75 27.7188 197.562 23.5C198.5 21.4062 199.844 19.375 201.906 17.9375C203.75 16.625 206.125 15.9375 208.5 15.9062C208.75 15.9062 209 15.9062 209.25 15.9375C214.531 16.1875 218.688 20.1562 220.281 24.4688C221.594 28.0625 221.906 32.0312 221.906 36.2188L221.875 38.7812C221.719 44 221.125 48.8438 219.25 53C217.406 57 213.25 60.5 208.344 60.5ZM198.375 26.6875C198.594 26.6875 198.812 26.5312 198.844 26.3125C199.75 21.9688 202.688 18.5625 206.219 18.25C206.469 18.2188 206.656 18.0312 206.656 17.7812C206.656 17.5312 206.438 17.3438 206.188 17.3438H206.156C202.094 17.6875 198.906 21.5 197.969 26.125V26.2188C197.969 26.4375 198.094 26.625 198.312 26.6875H198.375ZM208.312 51.3438C209.312 51.3438 210.188 50.75 210.906 49.1875C211.906 47.0625 212.594 43.0938 212.719 38.5312L212.75 36.7812C212.75 32.875 212.375 29.5625 211.656 27.625C210.875 25.4062 210.031 24.9062 208.781 24.9062C207.469 24.9062 206.688 25.625 205.969 27.1562C205.062 29.2188 204.5 33.2188 204.375 37.875L204.344 39.3125C204.344 43.2812 204.812 46.6875 205.594 48.7188C206.5 51 207.25 51.3438 208.312 51.3438ZM197.594 30.7812C197.812 30.7812 198 30.5938 198.031 30.375C198.125 29.7188 198.25 28.9688 198.406 28.25V28.125C198.406 27.9062 198.219 27.6875 197.938 27.6875C197.719 27.6875 197.562 27.875 197.5 28.0625C197.344 28.7812 197.219 29.5625 197.125 30.25V30.3125C197.125 30.5312 197.281 30.75 197.531 30.7812H197.594ZM211.5 51.5312C211.625 51.5312 211.75 51.4688 211.844 51.375C213.375 49.5625 214.031 46.5625 214.219 43.6875V43.625C214.219 43.375 214.031 43.1875 213.812 43.1875H213.75C213.5 43.1875 213.312 43.375 213.312 43.625C213.125 46.4062 212.406 49.2812 211.156 50.7812C211.062 50.8438 211.031 50.9688 211.031 51.0938C211.031 51.2188 211.094 51.3438 211.188 51.4375C211.281 51.5 211.406 51.5312 211.5 51.5312ZM249.25 60.5C247.469 60.5 245.812 59.4688 245.062 57.8125C242.125 51.25 239.188 44.7188 236.25 38.5V39.75C236.25 45.3438 236.438 50.9062 236.906 55.4062L236.938 55.9062C236.938 58.2188 235.156 60.2188 232.781 60.4688H232.344C230 60.4688 228 58.6875 227.781 56.3125C227.281 51.2188 227.062 45.2812 227.062 39.375C227.062 32.375 227.375 25.4375 227.875 20.0938C228.062 18.0938 229.562 16.4688 231.531 16.0625C231.844 16 232.156 15.9688 232.438 15.9688C234.094 15.9688 235.656 16.875 236.469 18.375C239.406 23.75 242.281 29.7188 245.188 35.9062C245.188 29.5312 245.062 23.7188 244.781 20.7188L244.75 20.2188C244.75 17.75 246.781 15.6875 249.312 15.6875H249.375C251.75 15.6875 253.719 17.5 253.906 19.9062C254.219 23.4688 254.375 29.1875 254.375 35.4062C254.375 42.5312 254.188 50.3125 253.812 56.2188C253.688 58.3125 252.125 60.0625 250.062 60.4375C249.781 60.4688 249.531 60.5 249.25 60.5ZM229.031 28.4375C229.25 28.4375 229.438 28.2188 229.469 28C229.656 24.1875 229.812 22 230.156 20.6875C230.469 19.3438 230.906 18.9062 231.844 18.3125C232 18.2188 232.062 18.0625 232.062 17.9062C232.062 17.6875 231.906 17.4688 231.625 17.4688H231.594L231.344 17.5312C230.312 18.1875 229.625 18.9688 229.25 20.4375C228.875 21.9375 228.719 24.1562 228.531 27.9688C228.531 28.2188 228.719 28.4375 228.969 28.4375H229.031ZM247.406 29.0625C247.656 29.0625 247.844 28.875 247.844 28.625V28.5938C247.844 27.7812 247.625 21.2188 247.594 20.2812C247.594 20.0312 247.375 19.8438 247.125 19.8438C246.875 19.8438 246.688 20.0625 246.688 20.3125L246.938 28.5938C246.938 28.875 247.156 29.0625 247.406 29.0625ZM228.781 32.6562C229.031 32.6562 229.25 32.4688 229.25 32.2188C229.312 31.4375 229.312 31 229.375 30.0625C229.375 29.8125 229.188 29.5938 228.938 29.5938H228.906C228.656 29.5938 228.469 29.7812 228.469 30.0312C228.406 30.9688 228.375 31.375 228.344 32.1875C228.344 32.4375 228.531 32.6562 228.781 32.6562Z" fill="#EA5199"/>
<path d="M97.7188 89.5L94.3359 89.4844C93.7266 89.4766 93.2188 88.9922 93.1953 88.3828C93.1641 87.5156 93.1406 86.4375 93.1406 85.3125C93.1406 83.1953 93.2266 80.8828 93.4922 79.3047C93.5859 78.7422 94.0469 78.3438 94.6328 78.3359C95.2734 78.3359 95.7812 78.8594 95.7812 79.4766C95.7812 79.5469 95.7734 79.6172 95.7578 79.6875C95.5234 81.0156 95.4453 83.3984 95.4453 85.5391L95.4609 87.1953L97.7266 87.2109C98.3594 87.2109 98.8672 87.7266 98.8672 88.3594C98.8672 88.9922 98.3438 89.5 97.7188 89.5ZM93.75 81.3047C93.8125 81.3047 93.8594 81.25 93.8594 81.1953C94 79.2969 94.0703 79.0547 94.5156 78.7891C94.5547 78.7656 94.5781 78.7266 94.5781 78.6875C94.5781 78.6328 94.5312 78.5781 94.4609 78.5703C94.4375 78.5703 94.4219 78.5781 94.3984 78.5938C93.8906 78.9062 93.75 79.2969 93.6328 81.1953C93.6328 81.25 93.6797 81.2969 93.7344 81.3047H93.75ZM93.6797 82.3516C93.7344 82.3516 93.7812 82.3047 93.7891 82.25C93.8047 82.0391 93.8203 81.9453 93.8281 81.6953C93.8281 81.6328 93.7812 81.5859 93.7109 81.5859C93.6484 81.5859 93.6016 81.6328 93.6016 81.6953L93.5547 82.2344C93.5547 82.2969 93.6016 82.3516 93.6641 82.3516H93.6797ZM96.8281 87.5859L97.6875 87.5625C97.7422 87.5625 97.7969 87.5234 97.7969 87.4609V87.4453C97.7969 87.3828 97.7422 87.3359 97.6797 87.3359L96.8281 87.3516C96.7656 87.3516 96.7109 87.4062 96.7109 87.4688C96.7109 87.5312 96.7656 87.5859 96.8281 87.5859ZM106.078 89.5C105.523 89.5 105.031 89.0938 104.938 88.5078L104.586 86.4609L102.734 86.4922C102.586 87.1484 102.43 87.8516 102.281 88.5625C102.188 89.1172 101.695 89.4922 101.156 89.4922C101.078 89.4922 101 89.4844 100.922 89.4688C100.391 89.3594 100.016 88.8906 100.016 88.3672L100.047 88.1094C100.766 84.5781 101.633 81.5 102.617 79.1484C102.672 78.9609 102.781 78.7812 102.906 78.6406L102.977 78.5938C103.18 78.3984 103.453 78.2891 103.742 78.2891C103.898 78.2891 104.062 78.3203 104.219 78.3828C104.414 78.4609 104.57 78.5781 104.688 78.6719C104.891 78.8594 105.008 79.0391 105.102 79.2109C105.297 79.5703 105.422 79.9531 105.562 80.3828C105.852 81.2812 106.109 82.4141 106.352 83.5703C106.844 85.8516 107.195 88.1562 107.195 88.1562L107.219 88.3594C107.219 88.9062 106.82 89.3906 106.25 89.4844L106.078 89.5ZM102.25 81.0234C102.305 81.0234 102.352 80.9844 102.367 80.9453C102.492 80.5078 102.617 80 102.797 79.5859C102.992 79.1484 103.211 78.8281 103.5 78.7188C103.555 78.6953 103.586 78.6484 103.586 78.6016C103.586 78.5469 103.547 78.4922 103.484 78.4922H103.422C103.039 78.6562 102.781 79.0391 102.586 79.4844C102.398 79.9375 102.266 80.4453 102.141 80.875V80.9062C102.141 80.9453 102.172 81 102.219 81.0234H102.25ZM101.969 82.0312C102.016 82.0312 102.062 82 102.078 81.9531L102.219 81.4375L102.227 81.4062C102.227 81.3359 102.18 81.2812 102.109 81.2812C102.062 81.2969 102.016 81.3281 102 81.375L101.852 81.8828V81.9219C101.852 81.9688 101.883 82.0156 101.93 82.0312H101.969ZM103.328 84.1875L104.141 84.1719C104.031 83.625 103.922 83.1328 103.797 82.6172L103.328 84.1875ZM104.477 83.8828C104.531 83.875 104.562 83.8281 104.562 83.7734L104.336 82.7188C104.32 82.6562 104.266 82.625 104.219 82.625C104.148 82.625 104.109 82.6719 104.109 82.7344L104.336 83.7891C104.344 83.8438 104.398 83.8906 104.453 83.8906L104.477 83.8828ZM111.875 89.5C110.93 89.5 109.914 89.0312 109.328 88.1719C108.742 87.3047 108.516 86.1875 108.516 84.7578C108.516 81.2266 108.656 79.3438 108.656 79.3438C108.695 78.7578 109.172 78.2891 109.758 78.2656H109.82C110.453 78.2812 110.953 78.7969 110.953 79.4219L110.945 79.5156C110.945 79.5156 110.805 81.2891 110.805 84.7578C110.805 85.9219 111.031 86.6016 111.227 86.8828C111.383 87.125 111.586 87.2109 111.875 87.2109C112.164 87.2109 112.367 87.125 112.523 86.8984C112.711 86.6172 112.938 85.9453 112.938 84.7578C112.938 81.0625 112.805 79.5859 112.805 79.5859L112.797 79.4609C112.797 78.8828 113.242 78.3906 113.836 78.3359L113.945 78.3281C114.531 78.3281 115.031 78.7891 115.086 79.3828C115.086 79.3828 115.227 81.0078 115.227 84.7578C115.227 86.2109 115 87.3281 114.414 88.1875C113.82 89.0469 112.805 89.5 111.875 89.5ZM108.969 81.25C109.023 81.25 109.07 81.1953 109.07 81.1406C109.117 80.1875 109.156 79.6406 109.234 79.3125C109.32 78.9766 109.43 78.8672 109.664 78.7188C109.703 78.6953 109.719 78.6562 109.719 78.6172C109.719 78.5625 109.672 78.5 109.602 78.5C109.578 78.5 109.555 78.5078 109.539 78.5234C109.281 78.6875 109.109 78.8828 109.016 79.25C108.922 79.625 108.883 80.1797 108.844 81.1328C108.844 81.1953 108.891 81.25 108.953 81.25H108.969ZM113.281 81.7734C113.336 81.7734 113.391 81.7266 113.391 81.6719L113.328 79.5859C113.328 79.5156 113.273 79.4688 113.211 79.4688C113.156 79.4688 113.102 79.5156 113.102 79.5703V79.5859C113.102 79.8281 113.156 81.4609 113.164 81.6641C113.164 81.7266 113.219 81.7734 113.281 81.7734ZM108.922 82.3047C108.977 82.3047 109.023 82.25 109.023 82.1953C109.039 82 109.039 81.8906 109.055 81.6562C109.055 81.5938 109.008 81.5391 108.945 81.5391H108.93C108.867 81.5391 108.828 81.5938 108.82 81.6484L108.797 82.1875C108.797 82.25 108.844 82.3047 108.906 82.3047H108.922ZM112.008 87.6797C112.258 87.6797 112.477 87.5859 112.641 87.4453C112.82 87.3047 112.953 87.1172 113.023 86.9375L113.031 86.8906C113.031 86.8281 112.984 86.7734 112.914 86.7734C112.867 86.7734 112.828 86.8047 112.812 86.8516C112.75 86.9922 112.641 87.1562 112.5 87.2734C112.367 87.375 112.211 87.4453 112.016 87.4453H111.945C111.891 87.4453 111.844 87.5 111.836 87.5547C111.836 87.6172 111.883 87.6719 111.953 87.6797H112.008ZM122.062 89.5C121.617 89.5 121.203 89.2422 121.016 88.8281C120.281 87.1875 119.547 85.5547 118.812 84V84.3125C118.812 85.7109 118.859 87.1016 118.977 88.2266L118.984 88.3516C118.984 88.9297 118.539 89.4297 117.945 89.4922H117.836C117.25 89.4922 116.75 89.0469 116.695 88.4531C116.57 87.1797 116.516 85.6953 116.516 84.2188C116.516 82.4688 116.594 80.7344 116.719 79.3984C116.766 78.8984 117.141 78.4922 117.633 78.3906C117.711 78.375 117.789 78.3672 117.859 78.3672C118.273 78.3672 118.664 78.5938 118.867 78.9688C119.602 80.3125 120.32 81.8047 121.047 83.3516C121.047 81.7578 121.016 80.3047 120.945 79.5547L120.938 79.4297C120.938 78.8125 121.445 78.2969 122.078 78.2969H122.094C122.688 78.2969 123.18 78.75 123.227 79.3516C123.305 80.2422 123.344 81.6719 123.344 83.2266C123.344 85.0078 123.297 86.9531 123.203 88.4297C123.172 88.9531 122.781 89.3906 122.266 89.4844C122.195 89.4922 122.133 89.5 122.062 89.5ZM117.008 81.4844C117.062 81.4844 117.109 81.4297 117.117 81.375C117.164 80.4219 117.203 79.875 117.289 79.5469C117.367 79.2109 117.477 79.1016 117.711 78.9531C117.75 78.9297 117.766 78.8906 117.766 78.8516C117.766 78.7969 117.727 78.7422 117.656 78.7422H117.648L117.586 78.7578C117.328 78.9219 117.156 79.1172 117.062 79.4844C116.969 79.8594 116.93 80.4141 116.883 81.3672C116.883 81.4297 116.93 81.4844 116.992 81.4844H117.008ZM121.602 81.6406C121.664 81.6406 121.711 81.5938 121.711 81.5312V81.5234C121.711 81.3203 121.656 79.6797 121.648 79.4453C121.648 79.3828 121.594 79.3359 121.531 79.3359C121.469 79.3359 121.422 79.3906 121.422 79.4531L121.484 81.5234C121.484 81.5938 121.539 81.6406 121.602 81.6406ZM116.945 82.5391C117.008 82.5391 117.062 82.4922 117.062 82.4297C117.078 82.2344 117.078 82.125 117.094 81.8906C117.094 81.8281 117.047 81.7734 116.984 81.7734H116.977C116.914 81.7734 116.867 81.8203 116.867 81.8828C116.852 82.1172 116.844 82.2188 116.836 82.4219C116.836 82.4844 116.883 82.5391 116.945 82.5391ZM126.109 89.5C125.492 89.5 124.953 88.9766 124.953 88.3359V88.2891C124.805 87.1641 124.75 85.4766 124.75 83.8047C124.75 82.125 124.781 80.5938 124.961 79.5859C124.992 78.6094 126.141 78.2969 127.242 78.2969C127.273 78.3047 127.312 78.3047 127.352 78.3047C127.93 78.3281 128.539 78.4922 129.109 78.8906C130.25 79.7031 130.859 81.2656 130.859 83.625C130.859 86.3594 129.734 88.0312 128.523 88.7969C127.656 89.3359 126.773 89.4531 126.336 89.4766C126.258 89.4922 126.188 89.5 126.109 89.5ZM125.289 81.0234C125.344 81.0234 125.391 80.9688 125.391 80.9141C125.43 79.7578 125.367 78.9375 126.508 78.7656C126.57 78.7578 126.609 78.7031 126.609 78.6484C126.602 78.5859 126.555 78.5391 126.492 78.5391H126.477C125.195 78.7344 125.211 79.6719 125.164 80.9062C125.164 80.9688 125.211 81.0234 125.273 81.0234H125.289ZM127.133 86.9531C127.773 86.6328 128.57 85.9297 128.57 83.625C128.57 81.6484 128.086 80.9766 127.781 80.7578C127.609 80.6406 127.398 80.5938 127.156 80.5938C127.094 81.375 127.039 82.6016 127.039 83.8047C127.039 84.9062 127.078 86.0547 127.133 86.9531ZM125.234 82.0469C125.289 82.0469 125.336 82 125.344 81.9453L125.375 81.3906C125.375 81.3281 125.32 81.2812 125.258 81.2812C125.195 81.2812 125.148 81.3281 125.148 81.3906L125.109 81.9297C125.109 81.9922 125.156 82.0469 125.219 82.0469H125.234ZM127.898 86.9609C127.93 86.9609 127.953 86.9531 127.977 86.9297C128.43 86.5547 128.727 85.8438 128.898 85.1406L128.906 85.1094C128.906 85.0391 128.852 85.0078 128.773 85C128.727 85 128.688 85.0391 128.68 85.0859C128.508 85.7656 128.203 86.4375 127.828 86.7578C127.805 86.7812 127.789 86.8125 127.789 86.8438C127.789 86.9062 127.836 86.9609 127.898 86.9609ZM133.484 89.5H133.445C132.82 89.5 132.312 89.0078 132.297 88.3828C132.242 86.9062 132.156 85.4766 132.156 83.6719C132.156 82.5469 132.188 81.2734 132.289 79.7578L132.281 79.625C132.281 79.1484 132.578 78.7266 133.023 78.5547C133.109 78.5234 133.203 78.4922 133.297 78.4844C133.492 78.4453 133.945 78.3672 134.5 78.3594H134.594C134.812 78.3594 135.055 78.3672 135.297 78.3984C135.852 78.4609 136.477 78.6094 137.055 79.0547C137.625 79.5 138.031 80.2969 138.031 81.1562C138.031 82.0312 137.711 82.8125 137.234 83.3516C136.781 83.8672 136.234 84.1797 135.727 84.3828L138.07 87.3438C138.242 87.5547 138.328 87.8125 138.328 88.0625C138.328 88.4062 138.18 88.7422 137.891 88.9688C137.68 89.1328 137.43 89.2109 137.18 89.2109C136.844 89.2109 136.5 89.0625 136.273 88.7656L134.516 86.5469L134.586 88.3516C134.586 88.9688 134.109 89.4766 133.484 89.5ZM132.703 81.2891C132.758 81.2891 132.805 81.2344 132.805 81.1797C132.828 80.5781 132.812 80.0391 132.938 79.6641C133 79.4766 133.094 79.3281 133.242 79.2266C133.391 79.1172 133.602 79.0469 133.906 79.0312C133.969 79.0312 134.016 78.9844 134.016 78.9219C134.016 78.8594 133.969 78.8047 133.906 78.8047H133.898C133.555 78.8203 133.297 78.8984 133.109 79.0391C132.914 79.1719 132.789 79.3672 132.719 79.5859C132.57 80.0312 132.594 80.5859 132.578 81.1719V81.1797C132.578 81.2422 132.633 81.2891 132.688 81.2891H132.703ZM134.461 82.3906C134.891 82.2891 135.297 82.0859 135.516 81.8438C135.656 81.6719 135.742 81.5234 135.742 81.1562C135.742 80.75 135.289 80.6484 134.781 80.6484L134.531 80.6562C134.492 81.2812 134.477 81.8594 134.461 82.3906ZM132.633 82.3203C132.695 82.3203 132.75 82.2734 132.75 82.2109L132.789 81.6719C132.789 81.6016 132.734 81.5469 132.672 81.5469C132.609 81.5547 132.562 81.6016 132.555 81.6562L132.523 82.2109C132.523 82.2656 132.57 82.3125 132.633 82.3203ZM134.992 82.7578H135.023C135.445 82.6328 135.961 82.3125 136.148 81.7422L136.156 81.7031C136.156 81.6406 136.109 81.5859 136.039 81.5859C135.992 81.5859 135.945 81.6172 135.93 81.6641C135.773 82.1484 135.328 82.4297 134.961 82.5391C134.906 82.5547 134.883 82.6016 134.883 82.6484V82.6797C134.898 82.7344 134.945 82.7578 134.992 82.7578ZM135.359 86.8203C135.383 86.8203 135.406 86.8125 135.43 86.7969C135.461 86.7812 135.477 86.7422 135.477 86.7109C135.477 86.6875 135.469 86.6562 135.453 86.6406L134.703 85.6172C134.688 85.5859 134.648 85.5703 134.609 85.5703C134.547 85.5781 134.5 85.625 134.5 85.6875C134.5 85.7109 134.508 85.7344 134.523 85.7578C134.609 85.875 135.195 86.6797 135.273 86.7734C135.289 86.8047 135.32 86.8203 135.359 86.8203ZM142.648 89.5156H142.633C142 89.5156 141.492 89.0078 141.492 88.3828L141.508 84.8828C140.922 84.2266 140.477 83.4062 140.062 82.5391C139.562 81.5 139.164 80.4688 138.969 79.7344C138.938 79.625 138.922 79.5234 138.922 79.4141C138.922 78.8047 139.414 78.2812 140.07 78.2812H140.094C140.609 78.2969 141.055 78.6484 141.18 79.1484C141.305 79.625 141.68 80.625 142.125 81.5469C142.297 81.8984 142.492 82.25 142.68 82.5625C143.328 81.5547 143.859 80.4219 144.195 79.1484C144.328 78.6328 144.789 78.2812 145.305 78.2812H145.359C145.992 78.3047 146.453 78.8359 146.453 79.4297C146.453 79.5312 146.438 79.6328 146.414 79.7344C145.875 81.7344 144.953 83.4688 143.797 84.9141L143.781 88.3828C143.781 89 143.273 89.5156 142.648 89.5156ZM140.102 81.5156L140.148 81.5078C140.188 81.4844 140.211 81.4453 140.211 81.3984L140.203 81.3516C139.828 80.4766 139.625 79.9688 139.555 79.6328C139.531 79.5312 139.523 79.4453 139.523 79.3672C139.523 79.1953 139.57 79.0781 139.672 78.9141C139.68 78.8906 139.688 78.8672 139.688 78.8516C139.688 78.7891 139.648 78.7422 139.578 78.7344C139.539 78.7344 139.5 78.7578 139.477 78.7891C139.359 78.9766 139.297 79.1641 139.297 79.3906C139.297 79.4766 139.305 79.5781 139.328 79.6797C139.406 80.0547 139.617 80.5625 139.992 81.4453C140.008 81.4844 140.055 81.5156 140.102 81.5156ZM143.617 82C143.648 82 143.688 81.9766 143.711 81.9453C143.836 81.7734 144.008 81.3906 144.18 80.9453C144.352 80.5 144.523 80 144.594 79.6172V79.5938C144.594 79.5391 144.547 79.4844 144.484 79.4844H144.477C144.422 79.4844 144.375 79.5234 144.367 79.5781C144.305 79.9297 144.141 80.4219 143.969 80.8594C143.797 81.2969 143.609 81.6953 143.523 81.8203C143.508 81.8359 143.5 81.8594 143.5 81.8828C143.5 81.9141 143.516 81.9531 143.555 81.9766C143.57 81.9922 143.594 82 143.617 82ZM140.578 82.4609L140.633 82.4453C140.672 82.4297 140.695 82.3906 140.695 82.3438L140.688 82.2891C140.594 82.1172 140.547 82.0234 140.445 81.8125C140.422 81.7734 140.383 81.75 140.344 81.75C140.266 81.75 140.219 81.8047 140.219 81.8594L140.234 81.9141L140.484 82.3984C140.5 82.4375 140.539 82.4609 140.578 82.4609ZM154.305 89.5C153.164 89.5 152.18 88.9766 151.617 88.0312C151.062 87.0859 150.898 85.9219 150.867 84.3516L150.859 83.75C150.859 82.3984 150.992 81.2578 151.406 80.2891C151.875 79.1797 153.008 78.3359 154.258 78.3359C155.406 78.3359 156.242 79.1328 156.578 79.7656C156.914 80.3984 156.969 81 156.969 81L156.977 81.1406C156.977 81.7188 156.539 82.2188 155.953 82.2812L155.836 82.2891C155.242 82.2891 154.742 81.8438 154.688 81.2422C154.641 80.7812 154.359 80.625 154.148 80.625C153.898 80.625 153.703 80.7422 153.508 81.1875C153.273 81.7344 153.156 82.8281 153.156 84.3047C153.156 85.6953 153.406 86.5391 153.594 86.8672C153.758 87.1562 153.906 87.2969 154.141 87.2969C154.359 87.2969 154.547 87.0781 154.617 86.875C154.695 86.625 154.703 86.3203 154.703 86.1953L154.695 86.0156C154.695 85.4297 155.094 84.9453 155.766 84.8906H155.852C156.477 84.8906 156.953 85.3672 156.992 85.9688C156.992 85.9688 157 86.0625 157 86.2266C157 86.5156 156.969 87.0078 156.812 87.5312C156.688 87.9453 156.477 88.4141 156.062 88.8203C155.641 89.2266 154.992 89.5 154.305 89.5ZM151.594 81.0547C151.641 81.0547 151.688 81.0234 151.703 80.9688C151.984 79.8125 152.891 79.0547 153.781 78.9766C153.836 78.9688 153.883 78.9297 153.883 78.875V78.8594C153.883 78.7969 153.828 78.75 153.766 78.75H153.758C152.75 78.8359 151.789 79.6719 151.484 80.9141L151.477 80.9453C151.477 81 151.508 81.0391 151.562 81.0547H151.594ZM151.375 82.0781C151.43 82.0781 151.484 82.0391 151.484 81.9844C151.508 81.8203 151.547 81.625 151.578 81.4531V81.4297C151.578 81.3672 151.531 81.3125 151.469 81.3125C151.414 81.3125 151.367 81.3516 151.359 81.4062C151.32 81.5859 151.281 81.7734 151.258 81.9531V81.9688C151.258 82.0234 151.305 82.0703 151.359 82.0781H151.375ZM155.008 85.8828C155.055 85.8828 155.102 85.8516 155.117 85.7969C155.164 85.6406 155.234 85.5078 155.375 85.4375C155.422 85.4141 155.445 85.3672 155.445 85.3281C155.445 85.2734 155.406 85.2188 155.336 85.2188C155.32 85.2188 155.297 85.2188 155.281 85.2266C155.055 85.3359 154.953 85.5469 154.898 85.7422L154.891 85.7734C154.891 85.8281 154.922 85.8672 154.977 85.8828H155.008ZM161.57 89.5H161.445C160.156 89.4375 159.164 88.4531 158.75 87.3828C158.398 86.4688 158.281 85.4297 158.281 84.3281L158.289 83.7891C158.32 82.5078 158.422 81.3047 158.875 80.25C159.109 79.7266 159.445 79.2188 159.961 78.8594C160.422 78.5312 161.016 78.3594 161.609 78.3516C161.672 78.3516 161.734 78.3516 161.797 78.3594C163.117 78.4219 164.156 79.4141 164.555 80.4922C164.883 81.3906 164.961 82.3828 164.961 83.4297L164.953 84.0703C164.914 85.375 164.766 86.5859 164.297 87.625C163.836 88.625 162.797 89.5 161.57 89.5ZM159.078 81.0469C159.133 81.0469 159.188 81.0078 159.195 80.9531C159.422 79.8672 160.156 79.0156 161.039 78.9375C161.102 78.9297 161.148 78.8828 161.148 78.8203C161.148 78.7578 161.094 78.7109 161.031 78.7109H161.023C160.008 78.7969 159.211 79.75 158.977 80.9062V80.9297C158.977 80.9844 159.008 81.0312 159.062 81.0469H159.078ZM161.562 87.2109C161.812 87.2109 162.031 87.0625 162.211 86.6719C162.461 86.1406 162.633 85.1484 162.664 84.0078L162.672 83.5703C162.672 82.5938 162.578 81.7656 162.398 81.2812C162.203 80.7266 161.992 80.6016 161.68 80.6016C161.352 80.6016 161.156 80.7812 160.977 81.1641C160.75 81.6797 160.609 82.6797 160.578 83.8438L160.57 84.2031C160.57 85.1953 160.688 86.0469 160.883 86.5547C161.109 87.125 161.297 87.2109 161.562 87.2109ZM158.883 82.0703C158.938 82.0703 158.984 82.0234 158.992 81.9688C159.016 81.8047 159.047 81.6172 159.086 81.4375V81.4062C159.086 81.3516 159.039 81.2969 158.969 81.2969C158.914 81.2969 158.875 81.3438 158.859 81.3906C158.82 81.5703 158.789 81.7656 158.766 81.9375V81.9531C158.766 82.0078 158.805 82.0625 158.867 82.0703H158.883ZM162.359 87.2578C162.391 87.2578 162.422 87.2422 162.445 87.2188C162.828 86.7656 162.992 86.0156 163.039 85.2969V85.2812C163.039 85.2188 162.992 85.1719 162.938 85.1719H162.922C162.859 85.1719 162.812 85.2188 162.812 85.2812C162.766 85.9766 162.586 86.6953 162.273 87.0703C162.25 87.0859 162.242 87.1172 162.242 87.1484C162.242 87.1797 162.258 87.2109 162.281 87.2344C162.305 87.25 162.336 87.2578 162.359 87.2578ZM167.578 89.5H167.539C166.914 89.5 166.406 89.0078 166.391 88.3828C166.336 86.9062 166.25 85.4766 166.25 83.6719C166.25 82.5469 166.281 81.2734 166.383 79.7578L166.375 79.625C166.375 79.1484 166.672 78.7266 167.117 78.5547C167.203 78.5234 167.297 78.4922 167.391 78.4844C167.586 78.4453 168.039 78.3672 168.594 78.3594H168.688C168.906 78.3594 169.148 78.3672 169.391 78.3984C169.945 78.4609 170.57 78.6094 171.148 79.0547C171.719 79.5 172.125 80.2969 172.125 81.1562C172.125 82.0312 171.805 82.8125 171.328 83.3516C170.875 83.8672 170.328 84.1797 169.82 84.3828L172.164 87.3438C172.336 87.5547 172.422 87.8125 172.422 88.0625C172.422 88.4062 172.273 88.7422 171.984 88.9688C171.773 89.1328 171.523 89.2109 171.273 89.2109C170.938 89.2109 170.594 89.0625 170.367 88.7656L168.609 86.5469L168.68 88.3516C168.68 88.9688 168.203 89.4766 167.578 89.5ZM166.797 81.2891C166.852 81.2891 166.898 81.2344 166.898 81.1797C166.922 80.5781 166.906 80.0391 167.031 79.6641C167.094 79.4766 167.188 79.3281 167.336 79.2266C167.484 79.1172 167.695 79.0469 168 79.0312C168.062 79.0312 168.109 78.9844 168.109 78.9219C168.109 78.8594 168.062 78.8047 168 78.8047H167.992C167.648 78.8203 167.391 78.8984 167.203 79.0391C167.008 79.1719 166.883 79.3672 166.812 79.5859C166.664 80.0312 166.688 80.5859 166.672 81.1719V81.1797C166.672 81.2422 166.727 81.2891 166.781 81.2891H166.797ZM168.555 82.3906C168.984 82.2891 169.391 82.0859 169.609 81.8438C169.75 81.6719 169.836 81.5234 169.836 81.1562C169.836 80.75 169.383 80.6484 168.875 80.6484L168.625 80.6562C168.586 81.2812 168.57 81.8594 168.555 82.3906ZM166.727 82.3203C166.789 82.3203 166.844 82.2734 166.844 82.2109L166.883 81.6719C166.883 81.6016 166.828 81.5469 166.766 81.5469C166.703 81.5547 166.656 81.6016 166.648 81.6562L166.617 82.2109C166.617 82.2656 166.664 82.3125 166.727 82.3203ZM169.086 82.7578H169.117C169.539 82.6328 170.055 82.3125 170.242 81.7422L170.25 81.7031C170.25 81.6406 170.203 81.5859 170.133 81.5859C170.086 81.5859 170.039 81.6172 170.023 81.6641C169.867 82.1484 169.422 82.4297 169.055 82.5391C169 82.5547 168.977 82.6016 168.977 82.6484V82.6797C168.992 82.7344 169.039 82.7578 169.086 82.7578ZM169.453 86.8203C169.477 86.8203 169.5 86.8125 169.523 86.7969C169.555 86.7812 169.57 86.7422 169.57 86.7109C169.57 86.6875 169.562 86.6562 169.547 86.6406L168.797 85.6172C168.781 85.5859 168.742 85.5703 168.703 85.5703C168.641 85.5781 168.594 85.625 168.594 85.6875C168.594 85.7109 168.602 85.7344 168.617 85.7578C168.703 85.875 169.289 86.6797 169.367 86.7734C169.383 86.8047 169.414 86.8203 169.453 86.8203ZM179.031 89.5C178.586 89.5 178.172 89.2422 177.984 88.8281C177.25 87.1875 176.516 85.5547 175.781 84V84.3125C175.781 85.7109 175.828 87.1016 175.945 88.2266L175.953 88.3516C175.953 88.9297 175.508 89.4297 174.914 89.4922H174.805C174.219 89.4922 173.719 89.0469 173.664 88.4531C173.539 87.1797 173.484 85.6953 173.484 84.2188C173.484 82.4688 173.562 80.7344 173.688 79.3984C173.734 78.8984 174.109 78.4922 174.602 78.3906C174.68 78.375 174.758 78.3672 174.828 78.3672C175.242 78.3672 175.633 78.5938 175.836 78.9688C176.57 80.3125 177.289 81.8047 178.016 83.3516C178.016 81.7578 177.984 80.3047 177.914 79.5547L177.906 79.4297C177.906 78.8125 178.414 78.2969 179.047 78.2969H179.062C179.656 78.2969 180.148 78.75 180.195 79.3516C180.273 80.2422 180.312 81.6719 180.312 83.2266C180.312 85.0078 180.266 86.9531 180.172 88.4297C180.141 88.9531 179.75 89.3906 179.234 89.4844C179.164 89.4922 179.102 89.5 179.031 89.5ZM173.977 81.4844C174.031 81.4844 174.078 81.4297 174.086 81.375C174.133 80.4219 174.172 79.875 174.258 79.5469C174.336 79.2109 174.445 79.1016 174.68 78.9531C174.719 78.9297 174.734 78.8906 174.734 78.8516C174.734 78.7969 174.695 78.7422 174.625 78.7422H174.617L174.555 78.7578C174.297 78.9219 174.125 79.1172 174.031 79.4844C173.938 79.8594 173.898 80.4141 173.852 81.3672C173.852 81.4297 173.898 81.4844 173.961 81.4844H173.977ZM178.57 81.6406C178.633 81.6406 178.68 81.5938 178.68 81.5312V81.5234C178.68 81.3203 178.625 79.6797 178.617 79.4453C178.617 79.3828 178.562 79.3359 178.5 79.3359C178.438 79.3359 178.391 79.3906 178.391 79.4531L178.453 81.5234C178.453 81.5938 178.508 81.6406 178.57 81.6406ZM173.914 82.5391C173.977 82.5391 174.031 82.4922 174.031 82.4297C174.047 82.2344 174.047 82.125 174.062 81.8906C174.062 81.8281 174.016 81.7734 173.953 81.7734H173.945C173.883 81.7734 173.836 81.8203 173.836 81.8828C173.82 82.1172 173.812 82.2188 173.805 82.4219C173.805 82.4844 173.852 82.5391 173.914 82.5391ZM184.062 89.5078C183.727 89.5078 183.438 89.5 183.125 89.4531C182.969 89.4219 182.805 89.3984 182.562 89.2734C182.336 89.1562 181.93 88.7734 181.875 88.2734L181.883 88.2891C181.773 87.3516 181.727 85.8594 181.727 84.3438C181.727 82.4844 181.797 80.5859 181.914 79.5938V79.6172C181.945 79.3125 182.117 78.9609 182.328 78.7656C182.562 78.5547 182.773 78.4844 182.938 78.4375C183.273 78.3438 183.523 78.3438 183.82 78.3438C183.898 78.3359 183.969 78.3359 184.055 78.3359C184.617 78.3359 185.312 78.3672 186.219 78.3672H186.234C186.867 78.3672 187.375 78.875 187.375 79.5078C187.375 80.1406 186.867 80.6562 186.234 80.6562H186.219C185.266 80.6562 184.617 80.6328 184.141 80.6328C184.109 81.2656 184.078 82.1406 184.062 83.0859L185.914 83.0547C186.539 83.0547 187.047 83.5547 187.062 84.1797V84.1953C187.062 84.8203 186.547 85.3438 185.914 85.3438L184.055 85.375C184.055 86.0547 184.07 86.6953 184.094 87.2188C184.664 87.2188 185.469 87.1797 186.25 87.1797H186.266C186.898 87.1797 187.414 87.6953 187.414 88.3281C187.414 88.9531 186.898 89.4688 186.266 89.4688H186.25C185.531 89.4688 184.734 89.5078 184.062 89.5078ZM182.422 81.0625C182.484 81.0625 182.539 81.0156 182.539 80.9531C182.578 79.7969 182.523 78.9766 183.656 78.8047C183.719 78.7969 183.758 78.7422 183.758 78.6797C183.75 78.625 183.703 78.5781 183.641 78.5781H183.617C182.344 78.7656 182.352 79.7109 182.312 80.9453C182.312 81.0078 182.359 81.0625 182.422 81.0625ZM182.383 82.0859C182.438 82.0859 182.484 82.0391 182.484 81.9766L182.523 81.4297C182.523 81.375 182.469 81.3203 182.414 81.3203H182.398C182.344 81.3203 182.297 81.3672 182.297 81.4297C182.273 81.6562 182.273 81.7656 182.258 81.9609C182.258 82.0312 182.305 82.0859 182.367 82.0859H182.383ZM185.055 83.4375L185.914 83.4219C185.969 83.4219 186.023 83.375 186.023 83.3203V83.3047C186.023 83.25 185.977 83.1953 185.922 83.1953L185.055 83.2109C184.992 83.2109 184.938 83.2578 184.938 83.3281C184.938 83.3906 184.992 83.4375 185.055 83.4375ZM187.086 88.2344L187.117 88.2266C187.172 88.2109 187.203 88.1641 187.203 88.1172V88.0859C187.141 87.8672 186.977 87.6875 186.789 87.5547C186.594 87.4297 186.375 87.3594 186.164 87.3594C186.102 87.3594 186.047 87.4141 186.047 87.4766C186.055 87.5469 186.102 87.5938 186.172 87.5938H186.195C186.336 87.5938 186.516 87.6562 186.664 87.75C186.82 87.8516 186.938 88 186.977 88.1484C186.992 88.2031 187.039 88.2344 187.086 88.2344ZM190.031 89.5H189.992C189.367 89.5 188.859 89.0078 188.844 88.3828C188.789 86.9062 188.703 85.4766 188.703 83.6719C188.703 82.5469 188.734 81.2734 188.836 79.7578L188.828 79.625C188.828 79.1484 189.125 78.7266 189.57 78.5547C189.656 78.5234 189.75 78.4922 189.844 78.4844C190.039 78.4453 190.492 78.3672 191.047 78.3594H191.141C191.359 78.3594 191.602 78.3672 191.844 78.3984C192.398 78.4609 193.023 78.6094 193.602 79.0547C194.172 79.5 194.578 80.2969 194.578 81.1562C194.578 82.0312 194.258 82.8125 193.781 83.3516C193.328 83.8672 192.781 84.1797 192.273 84.3828L194.617 87.3438C194.789 87.5547 194.875 87.8125 194.875 88.0625C194.875 88.4062 194.727 88.7422 194.438 88.9688C194.227 89.1328 193.977 89.2109 193.727 89.2109C193.391 89.2109 193.047 89.0625 192.82 88.7656L191.062 86.5469L191.133 88.3516C191.133 88.9688 190.656 89.4766 190.031 89.5ZM189.25 81.2891C189.305 81.2891 189.352 81.2344 189.352 81.1797C189.375 80.5781 189.359 80.0391 189.484 79.6641C189.547 79.4766 189.641 79.3281 189.789 79.2266C189.938 79.1172 190.148 79.0469 190.453 79.0312C190.516 79.0312 190.562 78.9844 190.562 78.9219C190.562 78.8594 190.516 78.8047 190.453 78.8047H190.445C190.102 78.8203 189.844 78.8984 189.656 79.0391C189.461 79.1719 189.336 79.3672 189.266 79.5859C189.117 80.0312 189.141 80.5859 189.125 81.1719V81.1797C189.125 81.2422 189.18 81.2891 189.234 81.2891H189.25ZM191.008 82.3906C191.438 82.2891 191.844 82.0859 192.062 81.8438C192.203 81.6719 192.289 81.5234 192.289 81.1562C192.289 80.75 191.836 80.6484 191.328 80.6484L191.078 80.6562C191.039 81.2812 191.023 81.8594 191.008 82.3906ZM189.18 82.3203C189.242 82.3203 189.297 82.2734 189.297 82.2109L189.336 81.6719C189.336 81.6016 189.281 81.5469 189.219 81.5469C189.156 81.5547 189.109 81.6016 189.102 81.6562L189.07 82.2109C189.07 82.2656 189.117 82.3125 189.18 82.3203ZM191.539 82.7578H191.57C191.992 82.6328 192.508 82.3125 192.695 81.7422L192.703 81.7031C192.703 81.6406 192.656 81.5859 192.586 81.5859C192.539 81.5859 192.492 81.6172 192.477 81.6641C192.32 82.1484 191.875 82.4297 191.508 82.5391C191.453 82.5547 191.43 82.6016 191.43 82.6484V82.6797C191.445 82.7344 191.492 82.7578 191.539 82.7578ZM191.906 86.8203C191.93 86.8203 191.953 86.8125 191.977 86.7969C192.008 86.7812 192.023 86.7422 192.023 86.7109C192.023 86.6875 192.016 86.6562 192 86.6406L191.25 85.6172C191.234 85.5859 191.195 85.5703 191.156 85.5703C191.094 85.5781 191.047 85.625 191.047 85.6875C191.047 85.7109 191.055 85.7344 191.07 85.7578C191.156 85.875 191.742 86.6797 191.82 86.7734C191.836 86.8047 191.867 86.8203 191.906 86.8203Z" fill="#EAECD1"/>
</svg>
