<svg width="259" height="102" viewBox="0 0 259 102" fill="none" xmlns="http://www.w3.org/2000/svg">
<rect width="259" height="102" rx="12" fill="#EAECD1"/>
<path d="M36.875 65L23.3438 64.9375C20.9062 64.9062 18.875 62.9688 18.7812 60.5312C18.6562 57.0625 18.5625 52.75 18.5625 48.25C18.5625 39.7812 18.9062 30.5312 19.9688 24.2188C20.3438 21.9688 22.1875 20.375 24.5312 20.3438C27.0938 20.3438 29.125 22.4375 29.125 24.9062C29.125 25.1875 29.0938 25.4688 29.0312 25.75C28.0938 31.0625 27.7812 40.5938 27.7812 49.1562L27.8438 55.7812L36.9062 55.8438C39.4375 55.8438 41.4688 57.9062 41.4688 60.4375C41.4688 62.9688 39.375 65 36.875 65ZM21 32.2188C21.25 32.2188 21.4375 32 21.4375 31.7812C22 24.1875 22.2812 23.2188 24.0625 22.1562C24.2188 22.0625 24.3125 21.9062 24.3125 21.75C24.3125 21.5312 24.125 21.3125 23.8438 21.2812C23.75 21.2812 23.6875 21.3125 23.5938 21.375C21.5625 22.625 21 24.1875 20.5312 31.7812C20.5312 32 20.7188 32.1875 20.9375 32.2188H21ZM20.7188 36.4062C20.9375 36.4062 21.125 36.2188 21.1562 36C21.2188 35.1562 21.2812 34.7812 21.3125 33.7812C21.3125 33.5312 21.125 33.3438 20.8438 33.3438C20.5938 33.3438 20.4062 33.5312 20.4062 33.7812L20.2188 35.9375C20.2188 36.1875 20.4062 36.4062 20.6562 36.4062H20.7188ZM33.3125 57.3438L36.75 57.25C36.9688 57.25 37.1875 57.0938 37.1875 56.8438V56.7812C37.1875 56.5312 36.9688 56.3438 36.7188 56.3438L33.3125 56.4062C33.0625 56.4062 32.8438 56.625 32.8438 56.875C32.8438 57.125 33.0625 57.3438 33.3125 57.3438ZM57.6562 65H57.1562C52 64.75 48.0312 60.8125 46.375 56.5312C44.9688 52.875 44.5 48.7188 44.5 44.3125L44.5312 42.1562C44.6562 37.0312 45.0625 32.2188 46.875 28C47.8125 25.9062 49.1562 23.875 51.2188 22.4375C53.0625 21.125 55.4375 20.4375 57.8125 20.4062C58.0625 20.4062 58.3125 20.4062 58.5625 20.4375C63.8438 20.6875 68 24.6562 69.5938 28.9688C70.9062 32.5625 71.2188 36.5312 71.2188 40.7188L71.1875 43.2812C71.0312 48.5 70.4375 53.3438 68.5625 57.5C66.7188 61.5 62.5625 65 57.6562 65ZM47.6875 31.1875C47.9062 31.1875 48.125 31.0312 48.1562 30.8125C49.0625 26.4688 52 23.0625 55.5312 22.75C55.7812 22.7188 55.9688 22.5312 55.9688 22.2812C55.9688 22.0312 55.75 21.8438 55.5 21.8438H55.4688C51.4062 22.1875 48.2188 26 47.2812 30.625V30.7188C47.2812 30.9375 47.4062 31.125 47.625 31.1875H47.6875ZM57.625 55.8438C58.625 55.8438 59.5 55.25 60.2188 53.6875C61.2188 51.5625 61.9062 47.5938 62.0312 43.0312L62.0625 41.2812C62.0625 37.375 61.6875 34.0625 60.9688 32.125C60.1875 29.9062 59.3438 29.4062 58.0938 29.4062C56.7812 29.4062 56 30.125 55.2812 31.6562C54.375 33.7188 53.8125 37.7188 53.6875 42.375L53.6562 43.8125C53.6562 47.7812 54.125 51.1875 54.9062 53.2188C55.8125 55.5 56.5625 55.8438 57.625 55.8438ZM46.9062 35.2812C47.125 35.2812 47.3125 35.0938 47.3438 34.875C47.4375 34.2188 47.5625 33.4688 47.7188 32.75V32.625C47.7188 32.4062 47.5312 32.1875 47.25 32.1875C47.0312 32.1875 46.875 32.375 46.8125 32.5625C46.6562 33.2812 46.5312 34.0625 46.4375 34.75V34.8125C46.4375 35.0312 46.5938 35.25 46.8438 35.2812H46.9062ZM60.8125 56.0312C60.9375 56.0312 61.0625 55.9688 61.1562 55.875C62.6875 54.0625 63.3438 51.0625 63.5312 48.1875V48.125C63.5312 47.875 63.3438 47.6875 63.125 47.6875H63.0625C62.8125 47.6875 62.625 47.875 62.625 48.125C62.4375 50.9062 61.7188 53.7812 60.4688 55.2812C60.375 55.3438 60.3438 55.4688 60.3438 55.5938C60.3438 55.7188 60.4062 55.8438 60.5 55.9375C60.5938 56 60.7188 56.0312 60.8125 56.0312ZM88.7812 65C86.875 65 85.0938 63.75 84.4688 61.8125C79.75 52 75.4062 34.8438 75.4062 24.7812V24.7188C75.4062 22.2188 77.4062 20.1562 79.9062 20.125H79.9688C82.5 20.125 84.5625 22.1875 84.5625 24.7188V24.7812C84.5625 29.4688 86.6562 39.5625 89.1562 47.9375C92.3125 39.7188 95.2188 30.1875 95.2188 24.7812V24.7188C95.2188 22.2188 97.2188 20.1562 99.7188 20.125H99.7812C102.312 20.125 104.375 22.1875 104.375 24.7188V24.7812C104.375 36.6875 97.5938 52.6562 93.1875 61.875C92.7812 63.1875 91.7812 64.2188 90.4688 64.7188C90.4375 64.7188 90.4062 64.7188 90.375 64.75C90.2812 64.7812 90.1875 64.8125 90.0938 64.8125C89.6562 64.9375 89.2188 65 88.7812 65ZM77.9062 33.1562C78.125 33.125 78.3125 32.9062 78.3125 32.6875V32.625C77.875 29.375 77.625 27.2812 77.625 25.9062L77.6562 25.2812C77.7812 23.9375 78.125 23.4062 78.9375 22.6562C79.0312 22.5625 79.0938 22.4375 79.0938 22.3438C79.0938 22.0938 78.9062 21.875 78.625 21.8438C78.5 21.8438 78.4062 21.9062 78.3125 21.9688C77.4062 22.8125 76.875 23.6875 76.75 25.2188L76.7188 25.9062C76.7188 27.4062 76.9688 29.5 77.375 32.75C77.4062 32.9688 77.625 33.1562 77.8438 33.1562H77.9062ZM95.2812 35.25C95.4688 35.25 95.6562 35.125 95.7188 34.9688C96.0625 34.1875 96.4688 32.5625 96.8125 30.6562C97.1562 28.7812 97.4375 26.6875 97.4375 25.1562C97.4375 24.875 97.25 24.6875 96.9688 24.6875C96.7188 24.6875 96.5312 24.9062 96.5312 25.1562C96.5312 26.5938 96.25 28.6562 95.9062 30.5C95.5625 32.3438 95.125 34.0312 94.875 34.5938L94.8438 34.7812C94.8438 34.9375 94.9375 35.125 95.125 35.2188L95.2812 35.25ZM78.75 37.3125C78.9688 37.25 79.125 37.0938 79.125 36.875V36.7812C78.9688 35.9688 78.875 35.5625 78.7188 34.6562C78.6875 34.4375 78.4688 34.2812 78.25 34.2812C78 34.2812 77.8125 34.4688 77.8125 34.75V34.8438L78.2188 36.9375C78.2812 37.1562 78.4375 37.3125 78.6562 37.3125H78.75ZM118.938 65.0312C117.594 65.0312 116.438 65 115.188 64.8125C114.562 64.6875 113.906 64.5938 112.938 64.0938C112.031 63.625 110.406 62.0938 110.188 60.0938L110.219 60.1562C109.781 56.4062 109.594 50.4375 109.594 44.375C109.594 36.9375 109.875 29.3438 110.344 25.375V25.4688C110.469 24.25 111.156 22.8438 112 22.0625C112.938 21.2188 113.781 20.9375 114.438 20.75C115.781 20.375 116.781 20.375 117.969 20.375C118.281 20.3438 118.562 20.3438 118.906 20.3438C121.156 20.3438 123.938 20.4688 127.562 20.4688H127.625C130.156 20.4688 132.188 22.5 132.188 25.0312C132.188 27.5625 130.156 29.625 127.625 29.625H127.562C123.75 29.625 121.156 29.5312 119.25 29.5312C119.125 32.0625 119 35.5625 118.938 39.3438L126.344 39.2188C128.844 39.2188 130.875 41.2188 130.938 43.7188V43.7812C130.938 46.2812 128.875 48.375 126.344 48.375L118.906 48.5C118.906 51.2188 118.969 53.7812 119.062 55.875C121.344 55.875 124.562 55.7188 127.688 55.7188H127.75C130.281 55.7188 132.344 57.7812 132.344 60.3125C132.344 62.8125 130.281 64.875 127.75 64.875H127.688C124.812 64.875 121.625 65.0312 118.938 65.0312ZM112.375 31.25C112.625 31.25 112.844 31.0625 112.844 30.8125C113 26.1875 112.781 22.9062 117.312 22.2188C117.562 22.1875 117.719 21.9688 117.719 21.7188C117.688 21.5 117.5 21.3125 117.25 21.3125H117.156C112.062 22.0625 112.094 25.8438 111.938 30.7812C111.938 31.0312 112.125 31.25 112.375 31.25ZM112.219 35.3438C112.438 35.3438 112.625 35.1562 112.625 34.9062L112.781 32.7188C112.781 32.5 112.562 32.2812 112.344 32.2812H112.281C112.062 32.2812 111.875 32.4688 111.875 32.7188C111.781 33.625 111.781 34.0625 111.719 34.8438C111.719 35.125 111.906 35.3438 112.156 35.3438H112.219ZM122.906 40.75L126.344 40.6875C126.562 40.6875 126.781 40.5 126.781 40.2812V40.2188C126.781 40 126.594 39.7812 126.375 39.7812L122.906 39.8438C122.656 39.8438 122.438 40.0312 122.438 40.3125C122.438 40.5625 122.656 40.75 122.906 40.75ZM131.031 59.9375L131.156 59.9062C131.375 59.8438 131.5 59.6562 131.5 59.4688V59.3438C131.25 58.4688 130.594 57.75 129.844 57.2188C129.062 56.7188 128.188 56.4375 127.344 56.4375C127.094 56.4375 126.875 56.6562 126.875 56.9062C126.906 57.1875 127.094 57.375 127.375 57.375H127.469C128.031 57.375 128.75 57.625 129.344 58C129.969 58.4062 130.438 59 130.594 59.5938C130.656 59.8125 130.844 59.9375 131.031 59.9375ZM155.094 65H154.938C152.438 65 150.375 63.0312 150.281 60.5312C150.094 56.375 150 49.2188 150 42.2188C150 34.9375 150.125 27.8438 150.375 24.4062C150.562 22 152.5 20.1562 154.969 20.125C157.5 20.125 159.531 22.1562 159.531 24.6562C159.406 27.1875 159.281 31.4688 159.219 39.0938L166.281 39C166.281 31.5 166.094 27.1562 166 24.6875C166 22.2188 168.031 20.125 170.562 20.125C173 20.125 175 21.9375 175.156 24.4062C175.406 27.375 175.5 33.0312 175.5 39.1562C175.5 47.0625 175.344 55.8125 175 60.625C174.906 63.0938 172.844 64.9688 170.438 64.9688C167.781 64.9062 165.844 62.9375 165.844 60.375V60.0312C166.031 57.4062 166.156 53 166.219 48.1562L159.219 48.25C159.281 53.8438 159.375 57.5625 159.469 60.4062C159.469 62.8438 157.531 64.875 155.094 65ZM151.406 32.2188C151.656 32.2188 151.875 32 151.875 31.75C151.875 23.9375 152.062 23.1875 153.781 21.9375C153.938 21.8438 154 21.7188 154 21.5625C154 21.3438 153.812 21.125 153.531 21.0938C153.438 21.0938 153.344 21.125 153.25 21.1875C151.188 22.6875 150.938 24 150.938 31.75C150.938 32 151.156 32.2188 151.406 32.2188ZM167.938 33.375C168.188 33.375 168.375 33.1562 168.375 32.9062L168.125 24.625C168.125 24.375 167.906 24.1562 167.656 24.1562C167.438 24.1875 167.219 24.3438 167.219 24.5625C167.281 25.5625 167.438 32.0625 167.469 32.9375C167.469 33.1875 167.688 33.375 167.938 33.375ZM151.438 36.4375C151.656 36.4375 151.875 36.25 151.875 36.0312L151.906 33.8125C151.906 33.5625 151.688 33.3438 151.438 33.3438C151.188 33.3438 150.969 33.5625 150.969 33.8125V35.9688C150.969 36.2188 151.188 36.4375 151.438 36.4375ZM159.719 40.25L163.125 40.1875C163.406 40.1875 163.594 39.9688 163.594 39.7188C163.594 39.4375 163.375 39.25 163.125 39.25L159.688 39.3438C159.438 39.3438 159.219 39.5312 159.219 39.7812C159.25 40.0625 159.469 40.25 159.719 40.25ZM166.812 59.125C167.062 59.125 167.25 58.9062 167.25 58.6875L167.344 56.4688C167.344 56.25 167.156 56.0625 166.906 56.0625C166.656 56.0625 166.438 56.25 166.438 56.5C166.375 57.4375 166.406 57.875 166.344 58.7188C166.344 58.9375 166.531 59.125 166.75 59.125H166.812ZM193.844 65H193.344C188.188 64.75 184.219 60.8125 182.562 56.5312C181.156 52.875 180.688 48.7188 180.688 44.3125L180.719 42.1562C180.844 37.0312 181.25 32.2188 183.062 28C184 25.9062 185.344 23.875 187.406 22.4375C189.25 21.125 191.625 20.4375 194 20.4062C194.25 20.4062 194.5 20.4062 194.75 20.4375C200.031 20.6875 204.188 24.6562 205.781 28.9688C207.094 32.5625 207.406 36.5312 207.406 40.7188L207.375 43.2812C207.219 48.5 206.625 53.3438 204.75 57.5C202.906 61.5 198.75 65 193.844 65ZM183.875 31.1875C184.094 31.1875 184.312 31.0312 184.344 30.8125C185.25 26.4688 188.188 23.0625 191.719 22.75C191.969 22.7188 192.156 22.5312 192.156 22.2812C192.156 22.0312 191.938 21.8438 191.688 21.8438H191.656C187.594 22.1875 184.406 26 183.469 30.625V30.7188C183.469 30.9375 183.594 31.125 183.812 31.1875H183.875ZM193.812 55.8438C194.812 55.8438 195.688 55.25 196.406 53.6875C197.406 51.5625 198.094 47.5938 198.219 43.0312L198.25 41.2812C198.25 37.375 197.875 34.0625 197.156 32.125C196.375 29.9062 195.531 29.4062 194.281 29.4062C192.969 29.4062 192.188 30.125 191.469 31.6562C190.562 33.7188 190 37.7188 189.875 42.375L189.844 43.8125C189.844 47.7812 190.312 51.1875 191.094 53.2188C192 55.5 192.75 55.8438 193.812 55.8438ZM183.094 35.2812C183.312 35.2812 183.5 35.0938 183.531 34.875C183.625 34.2188 183.75 33.4688 183.906 32.75V32.625C183.906 32.4062 183.719 32.1875 183.438 32.1875C183.219 32.1875 183.062 32.375 183 32.5625C182.844 33.2812 182.719 34.0625 182.625 34.75V34.8125C182.625 35.0312 182.781 35.25 183.031 35.2812H183.094ZM197 56.0312C197.125 56.0312 197.25 55.9688 197.344 55.875C198.875 54.0625 199.531 51.0625 199.719 48.1875V48.125C199.719 47.875 199.531 47.6875 199.312 47.6875H199.25C199 47.6875 198.812 47.875 198.812 48.125C198.625 50.9062 197.906 53.7812 196.656 55.2812C196.562 55.3438 196.531 55.4688 196.531 55.5938C196.531 55.7188 196.594 55.8438 196.688 55.9375C196.781 56 196.906 56.0312 197 56.0312ZM234.75 65C232.969 65 231.312 63.9688 230.562 62.3125C227.625 55.75 224.688 49.2188 221.75 43V44.25C221.75 49.8438 221.938 55.4062 222.406 59.9062L222.438 60.4062C222.438 62.7188 220.656 64.7188 218.281 64.9688H217.844C215.5 64.9688 213.5 63.1875 213.281 60.8125C212.781 55.7188 212.562 49.7812 212.562 43.875C212.562 36.875 212.875 29.9375 213.375 24.5938C213.562 22.5938 215.062 20.9688 217.031 20.5625C217.344 20.5 217.656 20.4688 217.938 20.4688C219.594 20.4688 221.156 21.375 221.969 22.875C224.906 28.25 227.781 34.2188 230.688 40.4062C230.688 34.0312 230.562 28.2188 230.281 25.2188L230.25 24.7188C230.25 22.25 232.281 20.1875 234.812 20.1875H234.875C237.25 20.1875 239.219 22 239.406 24.4062C239.719 27.9688 239.875 33.6875 239.875 39.9062C239.875 47.0312 239.688 54.8125 239.312 60.7188C239.188 62.8125 237.625 64.5625 235.562 64.9375C235.281 64.9688 235.031 65 234.75 65ZM214.531 32.9375C214.75 32.9375 214.938 32.7188 214.969 32.5C215.156 28.6875 215.312 26.5 215.656 25.1875C215.969 23.8438 216.406 23.4062 217.344 22.8125C217.5 22.7188 217.562 22.5625 217.562 22.4062C217.562 22.1875 217.406 21.9688 217.125 21.9688H217.094L216.844 22.0312C215.812 22.6875 215.125 23.4688 214.75 24.9375C214.375 26.4375 214.219 28.6562 214.031 32.4688C214.031 32.7188 214.219 32.9375 214.469 32.9375H214.531ZM232.906 33.5625C233.156 33.5625 233.344 33.375 233.344 33.125V33.0938C233.344 32.2812 233.125 25.7188 233.094 24.7812C233.094 24.5312 232.875 24.3438 232.625 24.3438C232.375 24.3438 232.188 24.5625 232.188 24.8125L232.438 33.0938C232.438 33.375 232.656 33.5625 232.906 33.5625ZM214.281 37.1562C214.531 37.1562 214.75 36.9688 214.75 36.7188C214.812 35.9375 214.812 35.5 214.875 34.5625C214.875 34.3125 214.688 34.0938 214.438 34.0938H214.406C214.156 34.0938 213.969 34.2812 213.969 34.5312C213.906 35.4688 213.875 35.875 213.844 36.6875C213.844 36.9375 214.031 37.1562 214.281 37.1562Z" fill="#EA5199"/>
<path d="M83.2188 94L79.8359 93.9844C79.2266 93.9766 78.7188 93.4922 78.6953 92.8828C78.6641 92.0156 78.6406 90.9375 78.6406 89.8125C78.6406 87.6953 78.7266 85.3828 78.9922 83.8047C79.0859 83.2422 79.5469 82.8438 80.1328 82.8359C80.7734 82.8359 81.2812 83.3594 81.2812 83.9766C81.2812 84.0469 81.2734 84.1172 81.2578 84.1875C81.0234 85.5156 80.9453 87.8984 80.9453 90.0391L80.9609 91.6953L83.2266 91.7109C83.8594 91.7109 84.3672 92.2266 84.3672 92.8594C84.3672 93.4922 83.8438 94 83.2188 94ZM79.25 85.8047C79.3125 85.8047 79.3594 85.75 79.3594 85.6953C79.5 83.7969 79.5703 83.5547 80.0156 83.2891C80.0547 83.2656 80.0781 83.2266 80.0781 83.1875C80.0781 83.1328 80.0312 83.0781 79.9609 83.0703C79.9375 83.0703 79.9219 83.0781 79.8984 83.0938C79.3906 83.4062 79.25 83.7969 79.1328 85.6953C79.1328 85.75 79.1797 85.7969 79.2344 85.8047H79.25ZM79.1797 86.8516C79.2344 86.8516 79.2812 86.8047 79.2891 86.75C79.3047 86.5391 79.3203 86.4453 79.3281 86.1953C79.3281 86.1328 79.2812 86.0859 79.2109 86.0859C79.1484 86.0859 79.1016 86.1328 79.1016 86.1953L79.0547 86.7344C79.0547 86.7969 79.1016 86.8516 79.1641 86.8516H79.1797ZM82.3281 92.0859L83.1875 92.0625C83.2422 92.0625 83.2969 92.0234 83.2969 91.9609V91.9453C83.2969 91.8828 83.2422 91.8359 83.1797 91.8359L82.3281 91.8516C82.2656 91.8516 82.2109 91.9062 82.2109 91.9688C82.2109 92.0312 82.2656 92.0859 82.3281 92.0859ZM91.5781 94C91.0234 94 90.5312 93.5938 90.4375 93.0078L90.0859 90.9609L88.2344 90.9922C88.0859 91.6484 87.9297 92.3516 87.7812 93.0625C87.6875 93.6172 87.1953 93.9922 86.6562 93.9922C86.5781 93.9922 86.5 93.9844 86.4219 93.9688C85.8906 93.8594 85.5156 93.3906 85.5156 92.8672L85.5469 92.6094C86.2656 89.0781 87.1328 86 88.1172 83.6484C88.1719 83.4609 88.2812 83.2812 88.4062 83.1406L88.4766 83.0938C88.6797 82.8984 88.9531 82.7891 89.2422 82.7891C89.3984 82.7891 89.5625 82.8203 89.7188 82.8828C89.9141 82.9609 90.0703 83.0781 90.1875 83.1719C90.3906 83.3594 90.5078 83.5391 90.6016 83.7109C90.7969 84.0703 90.9219 84.4531 91.0625 84.8828C91.3516 85.7812 91.6094 86.9141 91.8516 88.0703C92.3438 90.3516 92.6953 92.6562 92.6953 92.6562L92.7188 92.8594C92.7188 93.4062 92.3203 93.8906 91.75 93.9844L91.5781 94ZM87.75 85.5234C87.8047 85.5234 87.8516 85.4844 87.8672 85.4453C87.9922 85.0078 88.1172 84.5 88.2969 84.0859C88.4922 83.6484 88.7109 83.3281 89 83.2188C89.0547 83.1953 89.0859 83.1484 89.0859 83.1016C89.0859 83.0469 89.0469 82.9922 88.9844 82.9922H88.9219C88.5391 83.1562 88.2812 83.5391 88.0859 83.9844C87.8984 84.4375 87.7656 84.9453 87.6406 85.375V85.4062C87.6406 85.4453 87.6719 85.5 87.7188 85.5234H87.75ZM87.4688 86.5312C87.5156 86.5312 87.5625 86.5 87.5781 86.4531L87.7188 85.9375L87.7266 85.9062C87.7266 85.8359 87.6797 85.7812 87.6094 85.7812C87.5625 85.7969 87.5156 85.8281 87.5 85.875L87.3516 86.3828V86.4219C87.3516 86.4688 87.3828 86.5156 87.4297 86.5312H87.4688ZM88.8281 88.6875L89.6406 88.6719C89.5312 88.125 89.4219 87.6328 89.2969 87.1172L88.8281 88.6875ZM89.9766 88.3828C90.0312 88.375 90.0625 88.3281 90.0625 88.2734L89.8359 87.2188C89.8203 87.1562 89.7656 87.125 89.7188 87.125C89.6484 87.125 89.6094 87.1719 89.6094 87.2344L89.8359 88.2891C89.8438 88.3438 89.8984 88.3906 89.9531 88.3906L89.9766 88.3828ZM97.375 94C96.4297 94 95.4141 93.5312 94.8281 92.6719C94.2422 91.8047 94.0156 90.6875 94.0156 89.2578C94.0156 85.7266 94.1562 83.8438 94.1562 83.8438C94.1953 83.2578 94.6719 82.7891 95.2578 82.7656H95.3203C95.9531 82.7812 96.4531 83.2969 96.4531 83.9219L96.4453 84.0156C96.4453 84.0156 96.3047 85.7891 96.3047 89.2578C96.3047 90.4219 96.5312 91.1016 96.7266 91.3828C96.8828 91.625 97.0859 91.7109 97.375 91.7109C97.6641 91.7109 97.8672 91.625 98.0234 91.3984C98.2109 91.1172 98.4375 90.4453 98.4375 89.2578C98.4375 85.5625 98.3047 84.0859 98.3047 84.0859L98.2969 83.9609C98.2969 83.3828 98.7422 82.8906 99.3359 82.8359L99.4453 82.8281C100.031 82.8281 100.531 83.2891 100.586 83.8828C100.586 83.8828 100.727 85.5078 100.727 89.2578C100.727 90.7109 100.5 91.8281 99.9141 92.6875C99.3203 93.5469 98.3047 94 97.375 94ZM94.4688 85.75C94.5234 85.75 94.5703 85.6953 94.5703 85.6406C94.6172 84.6875 94.6562 84.1406 94.7344 83.8125C94.8203 83.4766 94.9297 83.3672 95.1641 83.2188C95.2031 83.1953 95.2188 83.1562 95.2188 83.1172C95.2188 83.0625 95.1719 83 95.1016 83C95.0781 83 95.0547 83.0078 95.0391 83.0234C94.7812 83.1875 94.6094 83.3828 94.5156 83.75C94.4219 84.125 94.3828 84.6797 94.3438 85.6328C94.3438 85.6953 94.3906 85.75 94.4531 85.75H94.4688ZM98.7812 86.2734C98.8359 86.2734 98.8906 86.2266 98.8906 86.1719L98.8281 84.0859C98.8281 84.0156 98.7734 83.9688 98.7109 83.9688C98.6562 83.9688 98.6016 84.0156 98.6016 84.0703V84.0859C98.6016 84.3281 98.6562 85.9609 98.6641 86.1641C98.6641 86.2266 98.7188 86.2734 98.7812 86.2734ZM94.4219 86.8047C94.4766 86.8047 94.5234 86.75 94.5234 86.6953C94.5391 86.5 94.5391 86.3906 94.5547 86.1562C94.5547 86.0938 94.5078 86.0391 94.4453 86.0391H94.4297C94.3672 86.0391 94.3281 86.0938 94.3203 86.1484L94.2969 86.6875C94.2969 86.75 94.3438 86.8047 94.4062 86.8047H94.4219ZM97.5078 92.1797C97.7578 92.1797 97.9766 92.0859 98.1406 91.9453C98.3203 91.8047 98.4531 91.6172 98.5234 91.4375L98.5312 91.3906C98.5312 91.3281 98.4844 91.2734 98.4141 91.2734C98.3672 91.2734 98.3281 91.3047 98.3125 91.3516C98.25 91.4922 98.1406 91.6562 98 91.7734C97.8672 91.875 97.7109 91.9453 97.5156 91.9453H97.4453C97.3906 91.9453 97.3438 92 97.3359 92.0547C97.3359 92.1172 97.3828 92.1719 97.4531 92.1797H97.5078ZM107.562 94C107.117 94 106.703 93.7422 106.516 93.3281C105.781 91.6875 105.047 90.0547 104.312 88.5V88.8125C104.312 90.2109 104.359 91.6016 104.477 92.7266L104.484 92.8516C104.484 93.4297 104.039 93.9297 103.445 93.9922H103.336C102.75 93.9922 102.25 93.5469 102.195 92.9531C102.07 91.6797 102.016 90.1953 102.016 88.7188C102.016 86.9688 102.094 85.2344 102.219 83.8984C102.266 83.3984 102.641 82.9922 103.133 82.8906C103.211 82.875 103.289 82.8672 103.359 82.8672C103.773 82.8672 104.164 83.0938 104.367 83.4688C105.102 84.8125 105.82 86.3047 106.547 87.8516C106.547 86.2578 106.516 84.8047 106.445 84.0547L106.438 83.9297C106.438 83.3125 106.945 82.7969 107.578 82.7969H107.594C108.188 82.7969 108.68 83.25 108.727 83.8516C108.805 84.7422 108.844 86.1719 108.844 87.7266C108.844 89.5078 108.797 91.4531 108.703 92.9297C108.672 93.4531 108.281 93.8906 107.766 93.9844C107.695 93.9922 107.633 94 107.562 94ZM102.508 85.9844C102.562 85.9844 102.609 85.9297 102.617 85.875C102.664 84.9219 102.703 84.375 102.789 84.0469C102.867 83.7109 102.977 83.6016 103.211 83.4531C103.25 83.4297 103.266 83.3906 103.266 83.3516C103.266 83.2969 103.227 83.2422 103.156 83.2422H103.148L103.086 83.2578C102.828 83.4219 102.656 83.6172 102.562 83.9844C102.469 84.3594 102.43 84.9141 102.383 85.8672C102.383 85.9297 102.43 85.9844 102.492 85.9844H102.508ZM107.102 86.1406C107.164 86.1406 107.211 86.0938 107.211 86.0312V86.0234C107.211 85.8203 107.156 84.1797 107.148 83.9453C107.148 83.8828 107.094 83.8359 107.031 83.8359C106.969 83.8359 106.922 83.8906 106.922 83.9531L106.984 86.0234C106.984 86.0938 107.039 86.1406 107.102 86.1406ZM102.445 87.0391C102.508 87.0391 102.562 86.9922 102.562 86.9297C102.578 86.7344 102.578 86.625 102.594 86.3906C102.594 86.3281 102.547 86.2734 102.484 86.2734H102.477C102.414 86.2734 102.367 86.3203 102.367 86.3828C102.352 86.6172 102.344 86.7188 102.336 86.9219C102.336 86.9844 102.383 87.0391 102.445 87.0391ZM111.609 94C110.992 94 110.453 93.4766 110.453 92.8359V92.7891C110.305 91.6641 110.25 89.9766 110.25 88.3047C110.25 86.625 110.281 85.0938 110.461 84.0859C110.492 83.1094 111.641 82.7969 112.742 82.7969C112.773 82.8047 112.812 82.8047 112.852 82.8047C113.43 82.8281 114.039 82.9922 114.609 83.3906C115.75 84.2031 116.359 85.7656 116.359 88.125C116.359 90.8594 115.234 92.5312 114.023 93.2969C113.156 93.8359 112.273 93.9531 111.836 93.9766C111.758 93.9922 111.688 94 111.609 94ZM110.789 85.5234C110.844 85.5234 110.891 85.4688 110.891 85.4141C110.93 84.2578 110.867 83.4375 112.008 83.2656C112.07 83.2578 112.109 83.2031 112.109 83.1484C112.102 83.0859 112.055 83.0391 111.992 83.0391H111.977C110.695 83.2344 110.711 84.1719 110.664 85.4062C110.664 85.4688 110.711 85.5234 110.773 85.5234H110.789ZM112.633 91.4531C113.273 91.1328 114.07 90.4297 114.07 88.125C114.07 86.1484 113.586 85.4766 113.281 85.2578C113.109 85.1406 112.898 85.0938 112.656 85.0938C112.594 85.875 112.539 87.1016 112.539 88.3047C112.539 89.4062 112.578 90.5547 112.633 91.4531ZM110.734 86.5469C110.789 86.5469 110.836 86.5 110.844 86.4453L110.875 85.8906C110.875 85.8281 110.82 85.7812 110.758 85.7812C110.695 85.7812 110.648 85.8281 110.648 85.8906L110.609 86.4297C110.609 86.4922 110.656 86.5469 110.719 86.5469H110.734ZM113.398 91.4609C113.43 91.4609 113.453 91.4531 113.477 91.4297C113.93 91.0547 114.227 90.3438 114.398 89.6406L114.406 89.6094C114.406 89.5391 114.352 89.5078 114.273 89.5C114.227 89.5 114.188 89.5391 114.18 89.5859C114.008 90.2656 113.703 90.9375 113.328 91.2578C113.305 91.2812 113.289 91.3125 113.289 91.3438C113.289 91.4062 113.336 91.4609 113.398 91.4609ZM118.984 94H118.945C118.32 94 117.812 93.5078 117.797 92.8828C117.742 91.4062 117.656 89.9766 117.656 88.1719C117.656 87.0469 117.688 85.7734 117.789 84.2578L117.781 84.125C117.781 83.6484 118.078 83.2266 118.523 83.0547C118.609 83.0234 118.703 82.9922 118.797 82.9844C118.992 82.9453 119.445 82.8672 120 82.8594H120.094C120.312 82.8594 120.555 82.8672 120.797 82.8984C121.352 82.9609 121.977 83.1094 122.555 83.5547C123.125 84 123.531 84.7969 123.531 85.6562C123.531 86.5312 123.211 87.3125 122.734 87.8516C122.281 88.3672 121.734 88.6797 121.227 88.8828L123.57 91.8438C123.742 92.0547 123.828 92.3125 123.828 92.5625C123.828 92.9062 123.68 93.2422 123.391 93.4688C123.18 93.6328 122.93 93.7109 122.68 93.7109C122.344 93.7109 122 93.5625 121.773 93.2656L120.016 91.0469L120.086 92.8516C120.086 93.4688 119.609 93.9766 118.984 94ZM118.203 85.7891C118.258 85.7891 118.305 85.7344 118.305 85.6797C118.328 85.0781 118.312 84.5391 118.438 84.1641C118.5 83.9766 118.594 83.8281 118.742 83.7266C118.891 83.6172 119.102 83.5469 119.406 83.5312C119.469 83.5312 119.516 83.4844 119.516 83.4219C119.516 83.3594 119.469 83.3047 119.406 83.3047H119.398C119.055 83.3203 118.797 83.3984 118.609 83.5391C118.414 83.6719 118.289 83.8672 118.219 84.0859C118.07 84.5312 118.094 85.0859 118.078 85.6719V85.6797C118.078 85.7422 118.133 85.7891 118.188 85.7891H118.203ZM119.961 86.8906C120.391 86.7891 120.797 86.5859 121.016 86.3438C121.156 86.1719 121.242 86.0234 121.242 85.6562C121.242 85.25 120.789 85.1484 120.281 85.1484L120.031 85.1562C119.992 85.7812 119.977 86.3594 119.961 86.8906ZM118.133 86.8203C118.195 86.8203 118.25 86.7734 118.25 86.7109L118.289 86.1719C118.289 86.1016 118.234 86.0469 118.172 86.0469C118.109 86.0547 118.062 86.1016 118.055 86.1562L118.023 86.7109C118.023 86.7656 118.07 86.8125 118.133 86.8203ZM120.492 87.2578H120.523C120.945 87.1328 121.461 86.8125 121.648 86.2422L121.656 86.2031C121.656 86.1406 121.609 86.0859 121.539 86.0859C121.492 86.0859 121.445 86.1172 121.43 86.1641C121.273 86.6484 120.828 86.9297 120.461 87.0391C120.406 87.0547 120.383 87.1016 120.383 87.1484V87.1797C120.398 87.2344 120.445 87.2578 120.492 87.2578ZM120.859 91.3203C120.883 91.3203 120.906 91.3125 120.93 91.2969C120.961 91.2812 120.977 91.2422 120.977 91.2109C120.977 91.1875 120.969 91.1562 120.953 91.1406L120.203 90.1172C120.188 90.0859 120.148 90.0703 120.109 90.0703C120.047 90.0781 120 90.125 120 90.1875C120 90.2109 120.008 90.2344 120.023 90.2578C120.109 90.375 120.695 91.1797 120.773 91.2734C120.789 91.3047 120.82 91.3203 120.859 91.3203ZM128.148 94.0156H128.133C127.5 94.0156 126.992 93.5078 126.992 92.8828L127.008 89.3828C126.422 88.7266 125.977 87.9062 125.562 87.0391C125.062 86 124.664 84.9688 124.469 84.2344C124.438 84.125 124.422 84.0234 124.422 83.9141C124.422 83.3047 124.914 82.7812 125.57 82.7812H125.594C126.109 82.7969 126.555 83.1484 126.68 83.6484C126.805 84.125 127.18 85.125 127.625 86.0469C127.797 86.3984 127.992 86.75 128.18 87.0625C128.828 86.0547 129.359 84.9219 129.695 83.6484C129.828 83.1328 130.289 82.7812 130.805 82.7812H130.859C131.492 82.8047 131.953 83.3359 131.953 83.9297C131.953 84.0312 131.938 84.1328 131.914 84.2344C131.375 86.2344 130.453 87.9688 129.297 89.4141L129.281 92.8828C129.281 93.5 128.773 94.0156 128.148 94.0156ZM125.602 86.0156L125.648 86.0078C125.688 85.9844 125.711 85.9453 125.711 85.8984L125.703 85.8516C125.328 84.9766 125.125 84.4688 125.055 84.1328C125.031 84.0312 125.023 83.9453 125.023 83.8672C125.023 83.6953 125.07 83.5781 125.172 83.4141C125.18 83.3906 125.188 83.3672 125.188 83.3516C125.188 83.2891 125.148 83.2422 125.078 83.2344C125.039 83.2344 125 83.2578 124.977 83.2891C124.859 83.4766 124.797 83.6641 124.797 83.8906C124.797 83.9766 124.805 84.0781 124.828 84.1797C124.906 84.5547 125.117 85.0625 125.492 85.9453C125.508 85.9844 125.555 86.0156 125.602 86.0156ZM129.117 86.5C129.148 86.5 129.188 86.4766 129.211 86.4453C129.336 86.2734 129.508 85.8906 129.68 85.4453C129.852 85 130.023 84.5 130.094 84.1172V84.0938C130.094 84.0391 130.047 83.9844 129.984 83.9844H129.977C129.922 83.9844 129.875 84.0234 129.867 84.0781C129.805 84.4297 129.641 84.9219 129.469 85.3594C129.297 85.7969 129.109 86.1953 129.023 86.3203C129.008 86.3359 129 86.3594 129 86.3828C129 86.4141 129.016 86.4531 129.055 86.4766C129.07 86.4922 129.094 86.5 129.117 86.5ZM126.078 86.9609L126.133 86.9453C126.172 86.9297 126.195 86.8906 126.195 86.8438L126.188 86.7891C126.094 86.6172 126.047 86.5234 125.945 86.3125C125.922 86.2734 125.883 86.25 125.844 86.25C125.766 86.25 125.719 86.3047 125.719 86.3594L125.734 86.4141L125.984 86.8984C126 86.9375 126.039 86.9609 126.078 86.9609ZM139.805 94C138.664 94 137.68 93.4766 137.117 92.5312C136.562 91.5859 136.398 90.4219 136.367 88.8516L136.359 88.25C136.359 86.8984 136.492 85.7578 136.906 84.7891C137.375 83.6797 138.508 82.8359 139.758 82.8359C140.906 82.8359 141.742 83.6328 142.078 84.2656C142.414 84.8984 142.469 85.5 142.469 85.5L142.477 85.6406C142.477 86.2188 142.039 86.7188 141.453 86.7812L141.336 86.7891C140.742 86.7891 140.242 86.3438 140.188 85.7422C140.141 85.2812 139.859 85.125 139.648 85.125C139.398 85.125 139.203 85.2422 139.008 85.6875C138.773 86.2344 138.656 87.3281 138.656 88.8047C138.656 90.1953 138.906 91.0391 139.094 91.3672C139.258 91.6562 139.406 91.7969 139.641 91.7969C139.859 91.7969 140.047 91.5781 140.117 91.375C140.195 91.125 140.203 90.8203 140.203 90.6953L140.195 90.5156C140.195 89.9297 140.594 89.4453 141.266 89.3906H141.352C141.977 89.3906 142.453 89.8672 142.492 90.4688C142.492 90.4688 142.5 90.5625 142.5 90.7266C142.5 91.0156 142.469 91.5078 142.312 92.0312C142.188 92.4453 141.977 92.9141 141.562 93.3203C141.141 93.7266 140.492 94 139.805 94ZM137.094 85.5547C137.141 85.5547 137.188 85.5234 137.203 85.4688C137.484 84.3125 138.391 83.5547 139.281 83.4766C139.336 83.4688 139.383 83.4297 139.383 83.375V83.3594C139.383 83.2969 139.328 83.25 139.266 83.25H139.258C138.25 83.3359 137.289 84.1719 136.984 85.4141L136.977 85.4453C136.977 85.5 137.008 85.5391 137.062 85.5547H137.094ZM136.875 86.5781C136.93 86.5781 136.984 86.5391 136.984 86.4844C137.008 86.3203 137.047 86.125 137.078 85.9531V85.9297C137.078 85.8672 137.031 85.8125 136.969 85.8125C136.914 85.8125 136.867 85.8516 136.859 85.9062C136.82 86.0859 136.781 86.2734 136.758 86.4531V86.4688C136.758 86.5234 136.805 86.5703 136.859 86.5781H136.875ZM140.508 90.3828C140.555 90.3828 140.602 90.3516 140.617 90.2969C140.664 90.1406 140.734 90.0078 140.875 89.9375C140.922 89.9141 140.945 89.8672 140.945 89.8281C140.945 89.7734 140.906 89.7188 140.836 89.7188C140.82 89.7188 140.797 89.7188 140.781 89.7266C140.555 89.8359 140.453 90.0469 140.398 90.2422L140.391 90.2734C140.391 90.3281 140.422 90.3672 140.477 90.3828H140.508ZM147.07 94H146.945C145.656 93.9375 144.664 92.9531 144.25 91.8828C143.898 90.9688 143.781 89.9297 143.781 88.8281L143.789 88.2891C143.82 87.0078 143.922 85.8047 144.375 84.75C144.609 84.2266 144.945 83.7188 145.461 83.3594C145.922 83.0312 146.516 82.8594 147.109 82.8516C147.172 82.8516 147.234 82.8516 147.297 82.8594C148.617 82.9219 149.656 83.9141 150.055 84.9922C150.383 85.8906 150.461 86.8828 150.461 87.9297L150.453 88.5703C150.414 89.875 150.266 91.0859 149.797 92.125C149.336 93.125 148.297 94 147.07 94ZM144.578 85.5469C144.633 85.5469 144.688 85.5078 144.695 85.4531C144.922 84.3672 145.656 83.5156 146.539 83.4375C146.602 83.4297 146.648 83.3828 146.648 83.3203C146.648 83.2578 146.594 83.2109 146.531 83.2109H146.523C145.508 83.2969 144.711 84.25 144.477 85.4062V85.4297C144.477 85.4844 144.508 85.5312 144.562 85.5469H144.578ZM147.062 91.7109C147.312 91.7109 147.531 91.5625 147.711 91.1719C147.961 90.6406 148.133 89.6484 148.164 88.5078L148.172 88.0703C148.172 87.0938 148.078 86.2656 147.898 85.7812C147.703 85.2266 147.492 85.1016 147.18 85.1016C146.852 85.1016 146.656 85.2812 146.477 85.6641C146.25 86.1797 146.109 87.1797 146.078 88.3438L146.07 88.7031C146.07 89.6953 146.188 90.5469 146.383 91.0547C146.609 91.625 146.797 91.7109 147.062 91.7109ZM144.383 86.5703C144.438 86.5703 144.484 86.5234 144.492 86.4688C144.516 86.3047 144.547 86.1172 144.586 85.9375V85.9062C144.586 85.8516 144.539 85.7969 144.469 85.7969C144.414 85.7969 144.375 85.8438 144.359 85.8906C144.32 86.0703 144.289 86.2656 144.266 86.4375V86.4531C144.266 86.5078 144.305 86.5625 144.367 86.5703H144.383ZM147.859 91.7578C147.891 91.7578 147.922 91.7422 147.945 91.7188C148.328 91.2656 148.492 90.5156 148.539 89.7969V89.7812C148.539 89.7188 148.492 89.6719 148.438 89.6719H148.422C148.359 89.6719 148.312 89.7188 148.312 89.7812C148.266 90.4766 148.086 91.1953 147.773 91.5703C147.75 91.5859 147.742 91.6172 147.742 91.6484C147.742 91.6797 147.758 91.7109 147.781 91.7344C147.805 91.75 147.836 91.7578 147.859 91.7578ZM153.078 94H153.039C152.414 94 151.906 93.5078 151.891 92.8828C151.836 91.4062 151.75 89.9766 151.75 88.1719C151.75 87.0469 151.781 85.7734 151.883 84.2578L151.875 84.125C151.875 83.6484 152.172 83.2266 152.617 83.0547C152.703 83.0234 152.797 82.9922 152.891 82.9844C153.086 82.9453 153.539 82.8672 154.094 82.8594H154.188C154.406 82.8594 154.648 82.8672 154.891 82.8984C155.445 82.9609 156.07 83.1094 156.648 83.5547C157.219 84 157.625 84.7969 157.625 85.6562C157.625 86.5312 157.305 87.3125 156.828 87.8516C156.375 88.3672 155.828 88.6797 155.32 88.8828L157.664 91.8438C157.836 92.0547 157.922 92.3125 157.922 92.5625C157.922 92.9062 157.773 93.2422 157.484 93.4688C157.273 93.6328 157.023 93.7109 156.773 93.7109C156.438 93.7109 156.094 93.5625 155.867 93.2656L154.109 91.0469L154.18 92.8516C154.18 93.4688 153.703 93.9766 153.078 94ZM152.297 85.7891C152.352 85.7891 152.398 85.7344 152.398 85.6797C152.422 85.0781 152.406 84.5391 152.531 84.1641C152.594 83.9766 152.688 83.8281 152.836 83.7266C152.984 83.6172 153.195 83.5469 153.5 83.5312C153.562 83.5312 153.609 83.4844 153.609 83.4219C153.609 83.3594 153.562 83.3047 153.5 83.3047H153.492C153.148 83.3203 152.891 83.3984 152.703 83.5391C152.508 83.6719 152.383 83.8672 152.312 84.0859C152.164 84.5312 152.188 85.0859 152.172 85.6719V85.6797C152.172 85.7422 152.227 85.7891 152.281 85.7891H152.297ZM154.055 86.8906C154.484 86.7891 154.891 86.5859 155.109 86.3438C155.25 86.1719 155.336 86.0234 155.336 85.6562C155.336 85.25 154.883 85.1484 154.375 85.1484L154.125 85.1562C154.086 85.7812 154.07 86.3594 154.055 86.8906ZM152.227 86.8203C152.289 86.8203 152.344 86.7734 152.344 86.7109L152.383 86.1719C152.383 86.1016 152.328 86.0469 152.266 86.0469C152.203 86.0547 152.156 86.1016 152.148 86.1562L152.117 86.7109C152.117 86.7656 152.164 86.8125 152.227 86.8203ZM154.586 87.2578H154.617C155.039 87.1328 155.555 86.8125 155.742 86.2422L155.75 86.2031C155.75 86.1406 155.703 86.0859 155.633 86.0859C155.586 86.0859 155.539 86.1172 155.523 86.1641C155.367 86.6484 154.922 86.9297 154.555 87.0391C154.5 87.0547 154.477 87.1016 154.477 87.1484V87.1797C154.492 87.2344 154.539 87.2578 154.586 87.2578ZM154.953 91.3203C154.977 91.3203 155 91.3125 155.023 91.2969C155.055 91.2812 155.07 91.2422 155.07 91.2109C155.07 91.1875 155.062 91.1562 155.047 91.1406L154.297 90.1172C154.281 90.0859 154.242 90.0703 154.203 90.0703C154.141 90.0781 154.094 90.125 154.094 90.1875C154.094 90.2109 154.102 90.2344 154.117 90.2578C154.203 90.375 154.789 91.1797 154.867 91.2734C154.883 91.3047 154.914 91.3203 154.953 91.3203ZM164.531 94C164.086 94 163.672 93.7422 163.484 93.3281C162.75 91.6875 162.016 90.0547 161.281 88.5V88.8125C161.281 90.2109 161.328 91.6016 161.445 92.7266L161.453 92.8516C161.453 93.4297 161.008 93.9297 160.414 93.9922H160.305C159.719 93.9922 159.219 93.5469 159.164 92.9531C159.039 91.6797 158.984 90.1953 158.984 88.7188C158.984 86.9688 159.062 85.2344 159.188 83.8984C159.234 83.3984 159.609 82.9922 160.102 82.8906C160.18 82.875 160.258 82.8672 160.328 82.8672C160.742 82.8672 161.133 83.0938 161.336 83.4688C162.07 84.8125 162.789 86.3047 163.516 87.8516C163.516 86.2578 163.484 84.8047 163.414 84.0547L163.406 83.9297C163.406 83.3125 163.914 82.7969 164.547 82.7969H164.562C165.156 82.7969 165.648 83.25 165.695 83.8516C165.773 84.7422 165.812 86.1719 165.812 87.7266C165.812 89.5078 165.766 91.4531 165.672 92.9297C165.641 93.4531 165.25 93.8906 164.734 93.9844C164.664 93.9922 164.602 94 164.531 94ZM159.477 85.9844C159.531 85.9844 159.578 85.9297 159.586 85.875C159.633 84.9219 159.672 84.375 159.758 84.0469C159.836 83.7109 159.945 83.6016 160.18 83.4531C160.219 83.4297 160.234 83.3906 160.234 83.3516C160.234 83.2969 160.195 83.2422 160.125 83.2422H160.117L160.055 83.2578C159.797 83.4219 159.625 83.6172 159.531 83.9844C159.438 84.3594 159.398 84.9141 159.352 85.8672C159.352 85.9297 159.398 85.9844 159.461 85.9844H159.477ZM164.07 86.1406C164.133 86.1406 164.18 86.0938 164.18 86.0312V86.0234C164.18 85.8203 164.125 84.1797 164.117 83.9453C164.117 83.8828 164.062 83.8359 164 83.8359C163.938 83.8359 163.891 83.8906 163.891 83.9531L163.953 86.0234C163.953 86.0938 164.008 86.1406 164.07 86.1406ZM159.414 87.0391C159.477 87.0391 159.531 86.9922 159.531 86.9297C159.547 86.7344 159.547 86.625 159.562 86.3906C159.562 86.3281 159.516 86.2734 159.453 86.2734H159.445C159.383 86.2734 159.336 86.3203 159.336 86.3828C159.32 86.6172 159.312 86.7188 159.305 86.9219C159.305 86.9844 159.352 87.0391 159.414 87.0391ZM169.562 94.0078C169.227 94.0078 168.938 94 168.625 93.9531C168.469 93.9219 168.305 93.8984 168.062 93.7734C167.836 93.6562 167.43 93.2734 167.375 92.7734L167.383 92.7891C167.273 91.8516 167.227 90.3594 167.227 88.8438C167.227 86.9844 167.297 85.0859 167.414 84.0938V84.1172C167.445 83.8125 167.617 83.4609 167.828 83.2656C168.062 83.0547 168.273 82.9844 168.438 82.9375C168.773 82.8438 169.023 82.8438 169.32 82.8438C169.398 82.8359 169.469 82.8359 169.555 82.8359C170.117 82.8359 170.812 82.8672 171.719 82.8672H171.734C172.367 82.8672 172.875 83.375 172.875 84.0078C172.875 84.6406 172.367 85.1562 171.734 85.1562H171.719C170.766 85.1562 170.117 85.1328 169.641 85.1328C169.609 85.7656 169.578 86.6406 169.562 87.5859L171.414 87.5547C172.039 87.5547 172.547 88.0547 172.562 88.6797V88.6953C172.562 89.3203 172.047 89.8438 171.414 89.8438L169.555 89.875C169.555 90.5547 169.57 91.1953 169.594 91.7188C170.164 91.7188 170.969 91.6797 171.75 91.6797H171.766C172.398 91.6797 172.914 92.1953 172.914 92.8281C172.914 93.4531 172.398 93.9688 171.766 93.9688H171.75C171.031 93.9688 170.234 94.0078 169.562 94.0078ZM167.922 85.5625C167.984 85.5625 168.039 85.5156 168.039 85.4531C168.078 84.2969 168.023 83.4766 169.156 83.3047C169.219 83.2969 169.258 83.2422 169.258 83.1797C169.25 83.125 169.203 83.0781 169.141 83.0781H169.117C167.844 83.2656 167.852 84.2109 167.812 85.4453C167.812 85.5078 167.859 85.5625 167.922 85.5625ZM167.883 86.5859C167.938 86.5859 167.984 86.5391 167.984 86.4766L168.023 85.9297C168.023 85.875 167.969 85.8203 167.914 85.8203H167.898C167.844 85.8203 167.797 85.8672 167.797 85.9297C167.773 86.1562 167.773 86.2656 167.758 86.4609C167.758 86.5312 167.805 86.5859 167.867 86.5859H167.883ZM170.555 87.9375L171.414 87.9219C171.469 87.9219 171.523 87.875 171.523 87.8203V87.8047C171.523 87.75 171.477 87.6953 171.422 87.6953L170.555 87.7109C170.492 87.7109 170.438 87.7578 170.438 87.8281C170.438 87.8906 170.492 87.9375 170.555 87.9375ZM172.586 92.7344L172.617 92.7266C172.672 92.7109 172.703 92.6641 172.703 92.6172V92.5859C172.641 92.3672 172.477 92.1875 172.289 92.0547C172.094 91.9297 171.875 91.8594 171.664 91.8594C171.602 91.8594 171.547 91.9141 171.547 91.9766C171.555 92.0469 171.602 92.0938 171.672 92.0938H171.695C171.836 92.0938 172.016 92.1562 172.164 92.25C172.32 92.3516 172.438 92.5 172.477 92.6484C172.492 92.7031 172.539 92.7344 172.586 92.7344ZM175.531 94H175.492C174.867 94 174.359 93.5078 174.344 92.8828C174.289 91.4062 174.203 89.9766 174.203 88.1719C174.203 87.0469 174.234 85.7734 174.336 84.2578L174.328 84.125C174.328 83.6484 174.625 83.2266 175.07 83.0547C175.156 83.0234 175.25 82.9922 175.344 82.9844C175.539 82.9453 175.992 82.8672 176.547 82.8594H176.641C176.859 82.8594 177.102 82.8672 177.344 82.8984C177.898 82.9609 178.523 83.1094 179.102 83.5547C179.672 84 180.078 84.7969 180.078 85.6562C180.078 86.5312 179.758 87.3125 179.281 87.8516C178.828 88.3672 178.281 88.6797 177.773 88.8828L180.117 91.8438C180.289 92.0547 180.375 92.3125 180.375 92.5625C180.375 92.9062 180.227 93.2422 179.938 93.4688C179.727 93.6328 179.477 93.7109 179.227 93.7109C178.891 93.7109 178.547 93.5625 178.32 93.2656L176.562 91.0469L176.633 92.8516C176.633 93.4688 176.156 93.9766 175.531 94ZM174.75 85.7891C174.805 85.7891 174.852 85.7344 174.852 85.6797C174.875 85.0781 174.859 84.5391 174.984 84.1641C175.047 83.9766 175.141 83.8281 175.289 83.7266C175.438 83.6172 175.648 83.5469 175.953 83.5312C176.016 83.5312 176.062 83.4844 176.062 83.4219C176.062 83.3594 176.016 83.3047 175.953 83.3047H175.945C175.602 83.3203 175.344 83.3984 175.156 83.5391C174.961 83.6719 174.836 83.8672 174.766 84.0859C174.617 84.5312 174.641 85.0859 174.625 85.6719V85.6797C174.625 85.7422 174.68 85.7891 174.734 85.7891H174.75ZM176.508 86.8906C176.938 86.7891 177.344 86.5859 177.562 86.3438C177.703 86.1719 177.789 86.0234 177.789 85.6562C177.789 85.25 177.336 85.1484 176.828 85.1484L176.578 85.1562C176.539 85.7812 176.523 86.3594 176.508 86.8906ZM174.68 86.8203C174.742 86.8203 174.797 86.7734 174.797 86.7109L174.836 86.1719C174.836 86.1016 174.781 86.0469 174.719 86.0469C174.656 86.0547 174.609 86.1016 174.602 86.1562L174.57 86.7109C174.57 86.7656 174.617 86.8125 174.68 86.8203ZM177.039 87.2578H177.07C177.492 87.1328 178.008 86.8125 178.195 86.2422L178.203 86.2031C178.203 86.1406 178.156 86.0859 178.086 86.0859C178.039 86.0859 177.992 86.1172 177.977 86.1641C177.82 86.6484 177.375 86.9297 177.008 87.0391C176.953 87.0547 176.93 87.1016 176.93 87.1484V87.1797C176.945 87.2344 176.992 87.2578 177.039 87.2578ZM177.406 91.3203C177.43 91.3203 177.453 91.3125 177.477 91.2969C177.508 91.2812 177.523 91.2422 177.523 91.2109C177.523 91.1875 177.516 91.1562 177.5 91.1406L176.75 90.1172C176.734 90.0859 176.695 90.0703 176.656 90.0703C176.594 90.0781 176.547 90.125 176.547 90.1875C176.547 90.2109 176.555 90.2344 176.57 90.2578C176.656 90.375 177.242 91.1797 177.32 91.2734C177.336 91.3047 177.367 91.3203 177.406 91.3203Z" fill="#0A0A0A"/>
</svg>
